<?xml version="1.0" encoding="UTF-8"?>
<svg version="1.1" xmlns="http://www.w3.org/2000/svg" width="800" height="800">
<path d="M0 0 C5.41464317 0.69361132 7.43244719 1.77526641 11 6 C13.99242029 10.25656519 16.45404208 14.59896078 18.75 19.25 C19.22373047 20.18585938 19.22373047 20.18585938 19.70703125 21.140625 C22 25.74641504 22 25.74641504 22 28 C23.32 27.67 24.64 27.34 26 27 C26.33 25.68 26.66 24.36 27 23 C27.99 23.33 28.98 23.66 30 24 C33.62666587 24.26165412 37.2412233 24.1811201 40.875 24.125 C41.86886719 24.14820313 42.86273438 24.17140625 43.88671875 24.1953125 C46.85328451 24.1317716 49.19618216 23.98500321 52 23 C54.3886322 20.25558664 55.76049849 17.40324563 57 14 C57.66 14 58.32 14 59 14 C58.125 21.625 58.125 21.625 57 25 C60.65680885 23.93728364 60.65680885 23.93728364 63.0625 21.1875 C63.5265625 20.1046875 63.5265625 20.1046875 64 19 C66.66028359 15.3815382 69.47778223 12.58839419 73 9.8125 C73.845625 9.13832031 74.69125 8.46414062 75.5625 7.76953125 C80.86073183 3.92321872 80.86073183 3.92321872 84.14453125 4.14453125 C86 5 86 5 87.01171875 6.63671875 C87.23472656 7.31347656 87.45773437 7.99023438 87.6875 8.6875 C88.03361328 9.68330078 88.03361328 9.68330078 88.38671875 10.69921875 C89.77542702 15.90908607 90.13626048 20.86749248 90.125 26.25 C90.12886719 28.08304688 90.12886719 28.08304688 90.1328125 29.953125 C90.04865918 34.66090191 89.52340002 39.32397521 89 44 C90.03769531 43.855625 91.07539063 43.71125 92.14453125 43.5625 C103.68100752 42.11593604 115.13946967 41.77720361 126.75 41.75 C127.85004868 41.74250732 127.85004868 41.74250732 128.97232056 41.73486328 C143.05124632 41.6562836 156.75182108 42.81467139 170.4375 46.3125 C171.24380859 46.50005859 172.05011719 46.68761719 172.88085938 46.88085938 C178.07190227 48.17966415 182.3943286 50.09353249 186.98901367 52.8359375 C188.91048171 53.9481822 190.82825754 54.83365105 192.875 55.6875 C196.5420123 57.47769498 199.16954933 59.88759936 202.125 62.6875 C208.21882914 68.42684047 214.8765441 72.64904875 222 77 C225.67965479 79.31321831 229.34394182 81.64967688 233 84 C233.95616211 84.61439941 233.95616211 84.61439941 234.93164062 85.24121094 C237.02229396 86.59024076 239.10557434 87.95004718 241.1875 89.3125 C241.86031006 89.74554443 242.53312012 90.17858887 243.22631836 90.62475586 C244.85348513 91.69720188 246.43212017 92.84260422 248 94 C248 94.66 248 95.32 248 96 C249.2375 96.2784375 249.2375 96.2784375 250.5 96.5625 C254.40732005 98.16729216 256.67082714 100.1250735 259.7421875 102.95703125 C262.18592446 105.16823268 264.73100265 107.20171791 267.3125 109.25 C281.26801012 120.62761728 293.86710178 133.90666678 298 152 C299.45835462 167.65007786 297.06164476 179.94669126 288 193 C282.35412847 199.68626555 272.63481378 204.86613556 264 206 C252.62421681 206.86368616 242.66389738 207.19070003 233.3984375 199.70629883 C231.56043307 197.46366389 231.68824375 196.17039371 231.8125 193.3125 C231.85310547 192.10013672 231.85310547 192.10013672 231.89453125 190.86328125 C231.92933594 190.24839844 231.96414063 189.63351562 232 189 C232.62455078 188.77973145 233.24910156 188.55946289 233.89257812 188.33251953 C250.78675394 182.87488203 250.78675394 182.87488203 262 170 C264.55215684 161.86692187 262.56899637 155.41531341 259 148 C257.71217256 145.63753277 256.35596951 143.32451916 255 141 C255 140.34 255 139.68 255 139 C254.01 138.67 253.02 138.34 252 138 C250.3515625 136.07421875 250.3515625 136.07421875 248.625 133.6875 C246.02827775 130.22153597 243.50863724 127.57988032 240 125 C239.67 124.34 239.34 123.68 239 123 C237.01833966 121.9641321 235.01526169 120.96887581 233 120 C231.32376502 119.01612294 229.65365406 118.02137457 228 117 C227.95609131 117.58048096 227.91218262 118.16096191 227.86694336 118.7590332 C227.26664423 125.69422959 226.02315097 132.38674316 224.5625 139.1875 C224.34529297 140.22841797 224.12808594 141.26933594 223.90429688 142.34179688 C223.00301506 146.60461628 222.09486592 150.83694383 220.85546875 155.015625 C219.53959616 159.60615771 219.43222137 163.43025909 221.0625 167.9375 C223.3687764 175.47133625 219.91406843 182.34186468 217.25390625 189.375 C216.05973264 192.82731498 215.28036656 196.17356299 214.5625 199.75 C213.36182955 204.7728047 213.36182955 204.7728047 210.3125 206.6875 C209.219375 206.790625 208.12625 206.89375 207 207 C205.741875 207.20625 204.48375 207.4125 203.1875 207.625 C201.792983 207.7639174 200.39695604 207.88824352 199 208 C198.22914063 208.07734375 197.45828125 208.1546875 196.6640625 208.234375 C192.53070622 208.48155245 190.50311671 208.30187003 186.875 206.125 C183.59535579 200.65892631 185.55252464 195.23737679 186.75 189.25 C187.06346168 185.17499818 186.09761493 183.47191437 184 180 C183.67386719 179.38640625 183.34773437 178.7728125 183.01171875 178.140625 C181.26812616 174.88232843 180.12275253 173.08183502 177 171 C176.01 171.33 175.02 171.66 174 172 C173.31526605 174.32809543 172.65146849 176.66237777 172 179 C170.72245446 181.0360882 169.39300182 183.04109119 168 185 C166.0198371 188.307446 165.65009152 191.18960458 165.25 195 C164.37109732 200.63733671 164.37109732 200.63733671 161.25 203.6875 C157.92644799 205.0297037 155.57504901 205.73518156 152 206 C151.05253906 206.07476562 150.10507812 206.14953125 149.12890625 206.2265625 C141.00134953 206.60458839 141.00134953 206.60458839 136.6875 204 C134.90166769 200.825187 134.51362123 198.97291641 135.2109375 195.390625 C137.24827513 189.21809712 140.40305803 183.39541295 144 178 C144.53788996 173.2173158 143.71498145 170.90008249 140.8125 167.125 C140.17570313 166.26519531 139.53890625 165.40539062 138.8828125 164.51953125 C138.26148438 163.68808594 137.64015625 162.85664063 137 162 C132.78877425 155.92317943 130 150.61203749 130 143 C125.76807729 143.26415872 121.53631903 143.53078702 117.3046875 143.79956055 C115.86950743 143.89038455 114.43428681 143.98057043 112.99902344 144.07006836 C104.9837363 144.57032512 96.98331012 145.10641768 89 146 C86.42878062 153.19637139 84.71142982 160.40586826 83.125 167.875 C81.304719 176.21161443 79.47324735 184.54078699 77.375 192.8125 C77.19340332 193.56321777 77.01180664 194.31393555 76.82470703 195.08740234 C75.52942386 200.06776039 73.71520742 204.28479258 70 208 C67.94269019 208.17953634 65.87715304 208.26817412 63.8125 208.3125 C62.68457031 208.34988281 61.55664062 208.38726562 60.39453125 208.42578125 C55.93082292 207.86589148 54.12280731 207.31305263 51 204 C50.08718875 199.69674698 50.11554176 195.4487589 50.125 191.0625 C50.104375 189.90169922 50.08375 188.74089844 50.0625 187.54492188 C50.00772025 184.02923582 49.99708974 180.51608146 50 177 C49.99838867 175.75331543 49.99677734 174.50663086 49.99511719 173.22216797 C49.99261624 170.14808808 49.99424989 167.07407374 50 164 C49.34 164 48.68 164 48 164 C48.05873291 164.93984741 48.05873291 164.93984741 48.11865234 165.89868164 C48.40134615 174.16635378 46.73471895 181.48000849 44.625 189.4375 C44.30789063 190.68982422 43.99078125 191.94214844 43.6640625 193.23242188 C41.09541324 203.20199182 41.09541324 203.20199182 39 207 C23.33078603 207.50545852 23.33078603 207.50545852 18.234375 203.671875 C15.91948501 200.53651767 16.57766598 196.68730083 17 193 C17.46414418 190.99137605 17.96596636 188.99118258 18.5 187 C22.49993989 171.7466407 16.86285026 156.09461254 11.80859375 141.578125 C9.20398464 133.92364309 7.53196097 126.59820555 6.5625 118.5625 C5.62552953 110.80175593 3.9520584 103.86135039 1.06860352 96.59204102 C-0.6261848 92.31471812 -1.51915114 88.53874411 -2 84 C-4.64 84.99 -7.28 85.98 -10 87 C-9.67 85.68 -9.34 84.36 -9 83 C-6.4375 81.75 -6.4375 81.75 -4 81 C-4.495 78.03 -4.495 78.03 -5 75 C-9.95 75.33 -14.9 75.66 -20 76 C-20 75.01 -20 74.02 -20 73 C-15.71 72.01 -11.42 71.02 -7 70 C-7 69.01 -7 68.02 -7 67 C-10.63 66.67 -14.26 66.34 -18 66 C-17.505 65.01 -17.505 65.01 -17 64 C-14.71484375 63.5859375 -14.71484375 63.5859375 -11.9375 63.375 C-11.01839844 63.30023438 -10.09929687 63.22546875 -9.15234375 63.1484375 C-8.44207031 63.09945312 -7.73179687 63.05046875 -7 63 C-7.0407666 62.07888428 -7.0815332 61.15776855 -7.12353516 60.20874023 C-7.27184007 56.71438784 -7.40820242 53.21995577 -7.53710938 49.72485352 C-7.59467829 48.22662258 -7.65668649 46.7285541 -7.72363281 45.23071289 C-8.30567445 32.09509133 -8.45296799 18.77264525 -2.875 6.5625 C-2.59785156 5.91474609 -2.32070313 5.26699219 -2.03515625 4.59960938 C-1.37334238 3.05918054 -0.68936077 1.52829982 0 0 Z " fill="#000000" transform="translate(285,161)"/>
<path d="M0 0 C1.32 0 2.64 0 4 0 C19.7034773 40.70788656 19.7034773 40.70788656 23.04296875 51.3515625 C24.13357396 54.36964548 25.54741846 57.14113042 27 60 C28.56513478 55.33421246 30.12728551 50.66743457 31.6875 46 C31.91786957 45.3111673 32.14823914 44.62233459 32.3855896 43.91262817 C34.9371921 36.27725509 37.47017055 28.6402753 39.8125 20.9375 C41.89579073 14.14448417 44.37343709 7.6039296 47 1 C50.96 1 54.92 1 59 1 C60.07748715 5.30994861 59.89198789 6.03281805 58.3125 9.9375 C56.70357675 14.08973835 55.27646073 18.23326473 54 22.5 C52.7715724 26.58030658 51.44552933 30.57740347 49.9375 34.5625 C48.57380096 38.22184684 47.50976878 41.82204647 46.625 45.625 C45.29777167 51.17522756 43.49457861 56.48998359 41.55224609 61.84667969 C38.77377052 69.53124638 36.2351068 77.29238473 33.71606445 85.06542969 C33.39210693 86.05188477 33.06814941 87.03833984 32.734375 88.0546875 C32.44788086 88.93624512 32.16138672 89.81780273 31.86621094 90.72607422 C31 93 31 93 29 96 C27.1484375 95.421875 27.1484375 95.421875 25 94 C23.7265625 91.015625 23.7265625 91.015625 22.625 87.25 C21.03548474 82.05870418 19.27153199 77.09676391 17.0625 72.125 C14.49737598 66.30590791 12.33271126 60.430764 10.26342773 54.42456055 C7.75395019 47.18259419 4.90984742 40.08888361 2 33 C-0.76363063 39.70064633 -3.26762349 46.46940784 -5.65625 53.3125 C-7.33464023 57.91831504 -9.15980154 62.45687725 -11 67 C-12.0171577 69.51592231 -13.03388767 72.03201046 -14.04882812 74.54882812 C-14.72651115 76.22932535 -15.40621083 77.90901068 -16.08789062 79.58789062 C-18.2648359 84.99867338 -20.2236279 90.44475429 -22 96 C-23.92919922 95.63623047 -23.92919922 95.63623047 -26 95 C-27.1328125 92.8203125 -27.1328125 92.8203125 -28 90 C-28.30679687 89.02804687 -28.61359375 88.05609375 -28.9296875 87.0546875 C-29.24164063 86.00539063 -29.55359375 84.95609375 -29.875 83.875 C-31.1412407 79.70109546 -32.47774089 75.58732564 -34 71.5 C-35.84808574 66.5238314 -37.41060696 61.48935733 -38.94921875 56.41015625 C-41.1432824 49.28964484 -43.56038894 42.23942665 -45.95605469 35.18457031 C-47.01627841 32.06185671 -48.07065138 28.93720152 -49.125 25.8125 C-49.63015137 24.33463013 -49.63015137 24.33463013 -50.14550781 22.8269043 C-52.4426481 16.00421586 -54.70166472 9.09281313 -56 2 C-54.18960804 0.18960804 -51.56909565 0.70119483 -49.125 0.625 C-48.05507813 0.57601563 -46.98515625 0.52703125 -45.8828125 0.4765625 C-43 1 -43 1 -41.328125 2.83984375 C-39.39525676 7.43893319 -38.00935925 12.14875102 -36.625 16.9375 C-34.34299434 24.65078753 -31.91811387 32.22628623 -29.125 39.76953125 C-27.46838235 44.52655484 -26.17738841 49.36497677 -24.89453125 54.234375 C-24.19748299 57.10596903 -24.19748299 57.10596903 -22 59 C-21.80365967 58.46109131 -21.60731934 57.92218262 -21.4050293 57.36694336 C-20.50120305 54.88972109 -19.5943725 52.41360862 -18.6875 49.9375 C-18.37876953 49.08994141 -18.07003906 48.24238281 -17.75195312 47.36914062 C-16.36862422 43.59774919 -14.96917923 39.85531937 -13.35546875 36.17578125 C-12.22409039 33.52503021 -11.36208541 31.02603595 -10.625 28.25 C-9.2591211 23.50536802 -7.30779854 19.21048908 -5.203125 14.75390625 C-3.66957651 11.2436735 -2.593219 7.68466205 -1.578125 3.99609375 C-1 2 -1 2 0 0 Z " fill="#F9E2CD" transform="translate(528,404)"/>
<path d="M0 0 C1.93359375 0.375 1.93359375 0.375 4 1 C4.69937532 2.31647119 5.36729133 3.65022151 6 5 C6.99 5.33 7.98 5.66 9 6 C10 8 11 10 12 12 C13.661017 13.67229725 15.32850245 15.33817826 17 17 C18.64242763 19.04432673 20.2417714 21.09058359 21.8125 23.1875 C22.6879823 24.34176808 23.5642942 25.49540736 24.44140625 26.6484375 C24.87211426 27.21530273 25.30282227 27.78216797 25.74658203 28.36621094 C27.54524237 30.71070548 29.39500321 33.0124464 31.25 35.3125 C34.59799746 39.47213321 37.82360075 43.70858155 41 48 C41.55042969 48.69351563 42.10085938 49.38703125 42.66796875 50.1015625 C44 52 44 52 44 54 C47.34918214 50.73307847 50.43079919 47.38507825 53.375 43.75 C54.14972656 42.79351562 54.92445313 41.83703125 55.72265625 40.8515625 C58.30899113 37.61309858 60.86610056 34.35415088 63.39453125 31.0703125 C64.54612037 29.58529489 65.71189514 28.1112365 66.88671875 26.64453125 C69.28769315 23.63998472 71.6499498 20.60688321 74 17.5625 C74.42539062 17.01529297 74.85078125 16.46808594 75.2890625 15.90429688 C77.37239474 13.20427273 79.31872591 10.51223553 81.1875 7.65234375 C83 5 83 5 85 4 C86.13350534 1.98330173 86.13350534 1.98330173 87 0 C88.65 0.33 90.3 0.66 92 1 C92.02314495 12.81311026 92.04092611 24.62621515 92.05181217 36.43934345 C92.05703627 41.9243328 92.06412538 47.40930667 92.07543945 52.89428711 C92.08628507 58.18512818 92.09228041 63.47595433 92.09487724 68.76680565 C92.09672846 70.78786644 92.10034329 72.80892639 92.10573006 74.82998085 C92.11296266 77.65530808 92.11398999 80.48057324 92.11352539 83.3059082 C92.11712067 84.14603958 92.12071594 84.98617096 92.12442017 85.85176086 C92.11851447 89.15895238 92.05333067 91.840008 91 95 C89.02090602 95.02686553 87.04171029 95.04633375 85.0625 95.0625 C83.96035156 95.07410156 82.85820312 95.08570313 81.72265625 95.09765625 C79 95 79 95 78 94 C77.87669912 92.1903226 77.82209817 90.37592163 77.79467773 88.56225586 C77.7647599 86.82056374 77.7647599 86.82056374 77.73423767 85.04368591 C77.71752518 83.780168 77.70081268 82.51665009 77.68359375 81.21484375 C77.66281265 79.92888809 77.64203156 78.64293243 77.62062073 77.31800842 C77.56533824 73.89364096 77.51595639 70.4692125 77.46777344 67.04473877 C77.41760335 63.55255686 77.3618939 60.0604639 77.30664062 56.56835938 C77.1989836 49.71231667 77.09755551 42.85619367 77 36 C75.71287579 37.60298118 74.42657525 39.20662376 73.140625 40.81054688 C72.42422852 41.70350464 71.70783203 42.5964624 70.96972656 43.51647949 C68.90039666 46.12558441 66.92572831 48.78334756 65 51.5 C61.76728422 55.9941088 58.38131896 60.32692816 54.8984375 64.62890625 C52.18076739 68.02319793 49.58043644 71.5007718 47 75 C43.64138305 73.56590028 41.64125061 71.80630679 39.25 69.0625 C38.63640625 68.37285156 38.0228125 67.68320312 37.390625 66.97265625 C36 65 36 65 36 62 C35.34 62 34.68 62 34 62 C32.7824707 60.67407227 32.7824707 60.67407227 31.42578125 58.81640625 C30.92602783 58.139729 30.42627441 57.46305176 29.91137695 56.76586914 C29.11993286 55.67520142 29.11993286 55.67520142 28.3125 54.5625 C27.22973874 53.09332822 26.14640809 51.62457589 25.0625 50.15625 C24.53785156 49.44210937 24.01320313 48.72796875 23.47265625 47.9921875 C19.02428928 41.75713285 19.02428928 41.75713285 14 36 C13.67 55.47 13.34 74.94 13 95 C9.04 95 5.08 95 1 95 C-0.87788672 93.12211328 -0.12008587 90.40834091 -0.12442017 87.91021729 C-0.12082489 87.03484314 -0.11722961 86.15946899 -0.11352539 85.25756836 C-0.11367142 84.3405867 -0.11381744 83.42360504 -0.1139679 82.47883606 C-0.1132684 79.43248164 -0.10547428 76.38618755 -0.09765625 73.33984375 C-0.0957922 71.23377007 -0.09436824 69.12769597 -0.09336853 67.0216217 C-0.08954231 61.46657117 -0.07971114 55.91154659 -0.06866455 50.35650635 C-0.05845267 44.6927526 -0.05387139 39.02899467 -0.04882812 33.36523438 C-0.03808896 22.24347815 -0.0210113 11.12174123 0 0 Z " fill="#F9E2CE" transform="translate(289,404)"/>
<path d="M0 0 C2.29125481 1.68025353 4.31145404 3.44569485 6.34765625 5.42578125 C7.39179687 6.41191406 7.39179687 6.41191406 8.45703125 7.41796875 C18.31405086 17.53438361 21.87183693 29.66900508 22.34765625 43.42578125 C22.16869068 53.63960202 17.65988978 62.87361123 12.34765625 71.42578125 C10.86265625 71.92078125 10.86265625 71.92078125 9.34765625 72.42578125 C8.662789 73.74985794 7.99895422 75.08487366 7.34765625 76.42578125 C3.99898667 80.42419268 0.01210144 82.37733158 -4.58984375 84.61328125 C-5.29302734 84.96841797 -5.99621094 85.32355469 -6.72070312 85.68945312 C-16.89084755 90.71257038 -30.61862623 91.56254843 -41.46484375 87.92578125 C-43.22178656 87.15272641 -44.95081696 86.31418904 -46.65234375 85.42578125 C-47.73257813 84.86632812 -48.8128125 84.306875 -49.92578125 83.73046875 C-62.27096704 76.75275504 -68.67013163 67.57951082 -73.65234375 54.42578125 C-76.57963669 43.55552882 -75.46744943 31.47397054 -70.65234375 21.42578125 C-70.36359375 20.72324219 -70.07484375 20.02070313 -69.77734375 19.296875 C-65.63640722 9.85036355 -57.32511834 1.35804276 -47.87890625 -2.79296875 C-32.03202401 -8.74086021 -14.83521791 -8.80499678 0 0 Z M-45.65234375 11.42578125 C-46.26851562 11.81378906 -46.8846875 12.20179688 -47.51953125 12.6015625 C-54.15193183 17.36215225 -59.65025659 25.70261837 -61.06494141 33.78222656 C-61.89623991 42.61324185 -61.84910689 51.91423571 -56.65234375 59.42578125 C-55.88857422 60.58980469 -55.88857422 60.58980469 -55.109375 61.77734375 C-49.12433036 70.18653691 -41.75372393 74.47454882 -31.65234375 76.42578125 C-22.40312279 77.53949068 -13.55672757 75.84109032 -5.84765625 70.47265625 C1.39198535 64.32862806 6.16764031 57.96031002 7.34765625 48.42578125 C7.97574338 35.96628539 7.50444116 27.0958927 -0.22265625 17.01953125 C-5.62029079 11.25742621 -12.69466781 6.4511925 -20.75 6.15234375 C-30.09716045 5.88209629 -37.80912163 5.6894639 -45.65234375 11.42578125 Z " fill="#F9E1CD" transform="translate(668.65234375,410.57421875)"/>
<path d="M0 0 C1.828125 0.12890625 1.828125 0.12890625 4 1 C5.421875 3.52734375 5.421875 3.52734375 6.75 6.9375 C7.25992748 8.20905315 7.77174504 9.47984947 8.28515625 10.75 C8.55730957 11.43320312 8.82946289 12.11640625 9.10986328 12.8203125 C10.70814448 16.73404112 12.45563046 20.58149646 14.1875 24.4375 C16.01146754 28.51582433 17.8345019 32.59302254 19.5859375 36.703125 C20.82663527 39.59580158 22.11560336 42.45633645 23.4375 45.3125 C25.05160335 48.84425449 26.58071142 52.38569832 28 56 C29.77634434 60.51965033 31.7485034 64.92851199 33.77734375 69.33984375 C35.22147024 72.48185697 36.62935089 75.63848081 38.01953125 78.8046875 C38.7051692 80.33986092 39.41279824 81.8653159 40.13671875 83.3828125 C40.68779297 84.55457031 40.68779297 84.55457031 41.25 85.75 C41.75273437 86.79414063 41.75273437 86.79414063 42.265625 87.859375 C43.11736429 90.34210442 43.12760914 92.39312759 43 95 C40.89758397 95.13496251 38.7927039 95.23197307 36.6875 95.3125 C35.51574219 95.37050781 34.34398437 95.42851562 33.13671875 95.48828125 C30 95 30 95 28.25 92.8671875 C27.8375 91.92101562 27.425 90.97484375 27 90 C26.54238281 88.99582031 26.08476562 87.99164063 25.61328125 86.95703125 C25.18402344 85.91933594 24.75476563 84.88164062 24.3125 83.8125 C23.87550781 82.76707031 23.43851562 81.72164063 22.98828125 80.64453125 C22 78 22 78 22 76 C8.8 76.33 -4.4 76.66 -18 77 C-22.26681289 85.45036842 -22.26681289 85.45036842 -25 94 C-26 95 -26 95 -28.94140625 95.09765625 C-30.13636719 95.08605469 -31.33132813 95.07445312 -32.5625 95.0625 C-33.76003906 95.05347656 -34.95757812 95.04445313 -36.19140625 95.03515625 C-37.58166016 95.01775391 -37.58166016 95.01775391 -39 95 C-40.11469088 91.64340273 -40.09606865 90.23629307 -38.7421875 86.90625 C-38.12601562 85.7821875 -37.50984375 84.658125 -36.875 83.5 C-33.86941053 77.84004608 -31.41156856 72.15825389 -29.171875 66.14453125 C-26.34879217 58.56925898 -23.17933355 51.26188858 -19.5 44.0625 C-16.6327395 38.44017615 -14.26766754 32.77908577 -12.140625 26.83984375 C-11 24 -11 24 -9.515625 21.56640625 C-7.6950959 18.4837062 -6.64016987 15.39127448 -5.5 12 C-4.03698659 7.64847294 -2.5100337 3.85260986 0 0 Z M1 29 C0.75765625 29.6290625 0.5153125 30.258125 0.265625 30.90625 C-1.32231801 34.96161214 -2.91291003 38.9533836 -4.9375 42.8125 C-8.25758185 49.24186486 -10.7144826 56.14344779 -13 63 C-3.43 63 6.14 63 16 63 C14.68 59.7 13.36 56.4 12 53 C11.54625 51.741875 11.0925 50.48375 10.625 49.1875 C8.05511084 42.25873807 5.102645 35.1539675 1 29 Z " fill="#F9E1CD" transform="translate(432,404)"/>
<path d="M0 0 C1.86791992 0.2578125 1.86791992 0.2578125 4 1 C5.16918945 2.6796875 5.16918945 2.6796875 6.11328125 4.875 C6.47075439 5.68743164 6.82822754 6.49986328 7.1965332 7.33691406 C7.74893677 8.6551416 7.74893677 8.6551416 8.3125 10 C8.70203857 10.89686523 9.09157715 11.79373047 9.49291992 12.71777344 C12.2896317 19.19485045 15.00264383 25.7124438 17.61645508 32.265625 C19.25903717 36.35584511 21.10596741 40.28155955 23.10522461 44.20947266 C24.14425228 46.288662 25.03671739 48.39494067 25.875 50.5625 C26.20628906 51.40425781 26.53757812 52.24601562 26.87890625 53.11328125 C27.70264934 55.23434796 28.52238149 57.35697349 29.33984375 59.48046875 C32.33538628 67.1804068 35.65455275 74.55566505 39.484375 81.87890625 C41.68576146 86.41217373 43 89.93383192 43 95 C38.71 95 34.42 95 30 95 C26.04694818 88.37596722 24.34606358 83.82021193 22 76 C8.8 76.33 -4.4 76.66 -18 77 C-20.64 82.61 -23.28 88.22 -26 94 C-27 95 -27 95 -29.94140625 95.09765625 C-31.13636719 95.08605469 -32.33132812 95.07445312 -33.5625 95.0625 C-34.76003906 95.05347656 -35.95757812 95.04445313 -37.19140625 95.03515625 C-38.58166016 95.01775391 -38.58166016 95.01775391 -40 95 C-39.59009213 90.08110557 -38.50147017 86.64250991 -36.17578125 82.3125 C-34.28361764 78.59103535 -32.79479918 74.70633367 -31.24609375 70.83203125 C-30 68 -30 68 -28.46484375 65.45703125 C-26.97798056 62.96306605 -26.05140011 60.62140739 -25.125 57.875 C-23.41324719 53.0076113 -21.40012378 48.36987582 -19.22265625 43.6953125 C-18.04263724 41.09399263 -16.97501164 38.47341222 -15.9375 35.8125 C-14.75256826 32.79068612 -13.48604964 29.88536487 -12 27 C-10.53467649 24.15454621 -9.28718845 21.29481003 -8.125 18.3125 C-5.69475533 12.08135266 -2.84499643 6.05035908 0 0 Z M1 30 C0.69707031 30.73863281 0.39414063 31.47726562 0.08203125 32.23828125 C-2.39251885 38.2304995 -4.94503319 44.16619553 -7.69140625 50.0390625 C-9.57863671 54.30927352 -11.266105 58.66526251 -13 63 C-3.43 63 6.14 63 16 63 C14.14655385 57.43966156 12.65911711 53.11557317 10.0390625 48.10546875 C8.47263828 44.93139863 7.23574924 41.63889527 5.94921875 38.34375 C4.78422274 35.46721663 3.44471945 32.74496695 2 30 C1.67 30 1.34 30 1 30 Z " fill="#FAE2CE" transform="translate(234,404)"/>
<path d="M0 0 C6.59983262 0.0468548 6.59983262 0.0468548 9.6484375 2.56640625 C11.46349084 5.19043133 12.9360612 7.84090369 14.375 10.6875 C15.36577075 12.31814353 16.36563056 13.94330318 17.375 15.5625 C18.3798307 17.26799642 19.37945643 18.97656582 20.375 20.6875 C21.01179688 21.77546875 21.64859375 22.8634375 22.3046875 23.984375 C23.99896328 26.88301549 25.68884922 29.78412794 27.375 32.6875 C30.67429269 29.52960557 32.36163896 26.79165904 34.375 22.6875 C35.31559328 21.23833013 36.27566603 19.80170331 37.25 18.375 C39.81510223 14.61623633 42.02317081 10.77669938 44.1015625 6.73046875 C45.6665868 4.2197089 47.01921692 2.50493403 49.375 0.6875 C52.609375 0.296875 52.609375 0.296875 56.125 0.4375 C57.29546875 0.47359375 58.4659375 0.5096875 59.671875 0.546875 C60.56390625 0.59328125 61.4559375 0.6396875 62.375 0.6875 C62.375 5.25301387 60.9526911 7.66520578 58.6875 11.4375 C58.13666748 12.37674316 58.13666748 12.37674316 57.57470703 13.33496094 C55.31275984 17.17420083 53.00327397 20.98324229 50.59765625 24.734375 C49.63766839 26.26790193 48.71570334 27.82523888 47.80859375 29.390625 C47.27363281 30.31359375 46.73867187 31.2365625 46.1875 32.1875 C45.69894531 33.0434375 45.21039063 33.899375 44.70703125 34.78125 C44.26746094 35.4103125 43.82789063 36.039375 43.375 36.6875 C42.715 36.6875 42.055 36.6875 41.375 36.6875 C41.271875 37.43 41.16875 38.1725 41.0625 38.9375 C40.375 41.6875 40.375 41.6875 38.75 43.75 C37.15822935 45.53430196 37.15822935 45.53430196 37.58203125 47.44140625 C38.61988794 50.38114811 40.09537531 52.88282119 41.6875 55.5625 C42.32042969 56.62855469 42.95335937 57.69460938 43.60546875 58.79296875 C44.86112345 60.84692048 46.16463645 62.87195467 47.5 64.875 C50.03735934 68.68103901 52.18286936 72.67561988 54.375 76.6875 C56.76363149 81.05760989 59.32856693 85.10781489 62.421875 89.01171875 C63.375 90.6875 63.375 90.6875 63.375 94.6875 C58.54869977 95.35857264 54.17717062 95.62111212 49.375 94.6875 C44.92850277 90.86764556 42.52482779 86.05211761 39.9921875 80.84375 C37.94581137 76.84985649 35.58845344 73.10059487 33.1875 69.3125 C32.72408203 68.57644531 32.26066406 67.84039062 31.78320312 67.08203125 C30.64960416 65.28229681 29.51264469 63.48467979 28.375 61.6875 C26.40558232 63.54298443 25.29490529 64.84768941 24.0625 67.3125 C22.255366 70.926768 20.117186 74.12388614 17.8515625 77.4609375 C16.59215997 79.36003655 15.42768817 81.26442105 14.3125 83.25 C13.673125 84.384375 13.03375 85.51875 12.375 86.6875 C12.10171875 87.41710937 11.8284375 88.14671875 11.546875 88.8984375 C10.39447103 91.50506553 9.63903905 92.9220886 7.375 94.6875 C2.28969663 95.38835912 -2.52651822 95.14924929 -7.625 94.6875 C-7.03751546 90.10764743 -6.22677244 87.95523394 -3.08984375 84.52734375 C-0.59474473 81.39349938 1.10774601 77.81944418 2.9453125 74.2734375 C4.26354477 71.88909388 5.71379418 69.8388977 7.375 67.6875 C8.30448769 66.09409252 9.22968681 64.49783214 10.12109375 62.8828125 C11.11366844 61.14503376 12.15915757 59.43748984 13.22265625 57.7421875 C13.87105469 56.69289063 14.51945312 55.64359375 15.1875 54.5625 C15.81269531 53.56992187 16.43789062 52.57734375 17.08203125 51.5546875 C18.57656141 48.24053301 18.57757415 47.06564012 17.375 43.6875 C16.26322241 41.419823 16.26322241 41.419823 14.8125 39.1875 C14.27753906 38.32640625 13.74257812 37.4653125 13.19140625 36.578125 C12.59199219 35.62421875 11.99257812 34.6703125 11.375 33.6875 C10.34602868 32.00480602 9.31708364 30.3220956 8.28930664 28.63867188 C6.01387468 24.91416873 3.72661027 21.21227171 1.296875 17.5859375 C-0.33826549 15.11993293 -1.82982496 12.65546475 -3.25 10.0625 C-3.65476562 9.32773437 -4.05953125 8.59296875 -4.4765625 7.8359375 C-5.56311238 5.80327616 -6.60553194 3.75449487 -7.625 1.6875 C-5.68269176 -0.25480824 -2.59753504 0.16678909 0 0 Z " fill="#F9E1CD" transform="translate(125.625,404.3125)"/>
<path d="M0 0 C6.59983262 0.0468548 6.59983262 0.0468548 9.6484375 2.56640625 C11.46349084 5.19043133 12.9360612 7.84090369 14.375 10.6875 C15.36577075 12.31814353 16.36563056 13.94330318 17.375 15.5625 C18.3798307 17.26799642 19.37945643 18.97656582 20.375 20.6875 C21.01179688 21.77546875 21.64859375 22.8634375 22.3046875 23.984375 C23.99896328 26.88301549 25.68884922 29.78412794 27.375 32.6875 C30.67429269 29.52960557 32.36163896 26.79165904 34.375 22.6875 C35.31559328 21.23833013 36.27566603 19.80170331 37.25 18.375 C39.81510223 14.61623633 42.02317081 10.77669938 44.1015625 6.73046875 C45.6665868 4.2197089 47.01921692 2.50493403 49.375 0.6875 C52.609375 0.296875 52.609375 0.296875 56.125 0.4375 C57.29546875 0.47359375 58.4659375 0.5096875 59.671875 0.546875 C60.56390625 0.59328125 61.4559375 0.6396875 62.375 0.6875 C62.375 5.25301387 60.9526911 7.66520578 58.6875 11.4375 C58.13666748 12.37674316 58.13666748 12.37674316 57.57470703 13.33496094 C55.31275984 17.17420083 53.00327397 20.98324229 50.59765625 24.734375 C49.63766839 26.26790193 48.71570334 27.82523888 47.80859375 29.390625 C47.27363281 30.31359375 46.73867187 31.2365625 46.1875 32.1875 C45.69894531 33.0434375 45.21039063 33.899375 44.70703125 34.78125 C44.26746094 35.4103125 43.82789063 36.039375 43.375 36.6875 C42.715 36.6875 42.055 36.6875 41.375 36.6875 C41.313125 37.409375 41.25125 38.13125 41.1875 38.875 C40.13043353 42.53407625 38.16949929 44.17961602 35.375 46.6875 C35.375 43.33746243 35.9422034 42.38119438 37.6484375 39.58203125 C38.13900635 38.77064697 38.6295752 37.9592627 39.13500977 37.12329102 C39.66795654 36.25760498 40.20090332 35.39191895 40.75 34.5 C41.29003662 33.61175537 41.83007324 32.72351074 42.38647461 31.80834961 C46.64107509 24.82885759 50.95842873 17.88801532 55.31640625 10.97265625 C57.03568909 8.22898097 58.72166659 5.47122749 60.375 2.6875 C56.44455198 2.31790995 53.134448 2.41569757 49.375 3.6875 C46.25187652 7.28237635 44.44369504 11.42518871 42.375 15.6875 C41.19474678 17.60094083 39.98723824 19.4979025 38.75 21.375 C35.74685232 26.03903071 32.9943798 30.79879577 30.375 35.6875 C28.14453125 35.609375 28.14453125 35.609375 25.375 34.6875 C23.69768361 32.43501767 22.38923955 30.38252149 21.0625 27.9375 C20.28473135 26.57241651 19.50606718 25.20784291 18.7265625 23.84375 C18.33758789 23.15152344 17.94861328 22.45929688 17.54785156 21.74609375 C15.75325447 18.59620976 13.84954746 15.51701019 11.9375 12.4375 C11.29941406 11.40109375 10.66132813 10.3646875 10.00390625 9.296875 C8.82463823 7.40778378 7.61029364 5.54044046 6.375 3.6875 C3.94978506 3.10560734 3.94978506 3.10560734 1.25 3 C0.33992188 2.93425781 -0.57015625 2.86851562 -1.5078125 2.80078125 C-2.20648438 2.76339844 -2.90515625 2.72601563 -3.625 2.6875 C0.71958809 10.89942976 5.46317116 18.80465858 10.375 26.6875 C11.09227078 27.85477824 11.80841171 29.02275148 12.5234375 30.19140625 C12.8755127 30.76648926 13.22758789 31.34157227 13.59033203 31.93408203 C14.56543981 33.52766308 15.54053288 35.12125312 16.515625 36.71484375 C18.36327689 39.76114475 18.36327689 39.76114475 20.671875 42.75390625 C22.375 45.6875 22.375 45.6875 22.28125 48.3203125 C21.36706773 50.70821965 20.37072353 52.49341579 18.875 54.5625 C16.07426648 58.59609229 13.50607389 62.7179859 11 66.9375 C8.72529444 70.76583959 6.44845266 74.58975176 4.08984375 78.3671875 C3.72745605 78.94823242 3.36506836 79.52927734 2.99169922 80.12792969 C1.99868905 81.71472221 1.00143549 83.29885697 0.00390625 84.8828125 C-1.67835904 87.61514457 -1.67835904 87.61514457 -2.71484375 90.47265625 C-3.625 92.6875 -3.625 92.6875 -5.75 94 C-6.36875 94.226875 -6.9875 94.45375 -7.625 94.6875 C-7.29780693 90.10679703 -6.16222371 87.88469808 -3.08984375 84.52734375 C-0.59474473 81.39349938 1.10774601 77.81944418 2.9453125 74.2734375 C4.26354477 71.88909388 5.71379418 69.8388977 7.375 67.6875 C8.30448769 66.09409252 9.22968681 64.49783214 10.12109375 62.8828125 C11.11366844 61.14503376 12.15915757 59.43748984 13.22265625 57.7421875 C13.87105469 56.69289063 14.51945312 55.64359375 15.1875 54.5625 C15.81269531 53.56992187 16.43789062 52.57734375 17.08203125 51.5546875 C18.57656141 48.24053301 18.57757415 47.06564012 17.375 43.6875 C16.26322241 41.419823 16.26322241 41.419823 14.8125 39.1875 C14.27753906 38.32640625 13.74257812 37.4653125 13.19140625 36.578125 C12.59199219 35.62421875 11.99257812 34.6703125 11.375 33.6875 C10.34602868 32.00480602 9.31708364 30.3220956 8.28930664 28.63867188 C6.01387468 24.91416873 3.72661027 21.21227171 1.296875 17.5859375 C-0.33826549 15.11993293 -1.82982496 12.65546475 -3.25 10.0625 C-3.65476562 9.32773437 -4.05953125 8.59296875 -4.4765625 7.8359375 C-5.56311238 5.80327616 -6.60553194 3.75449487 -7.625 1.6875 C-5.68269176 -0.25480824 -2.59753504 0.16678909 0 0 Z " fill="#FEF1D9" transform="translate(125.625,404.3125)"/>
<path d="M0 0 C3.24812693 0.84648156 4.88992576 2.9648036 6.93359375 5.50390625 C7.26359375 5.83390625 7.59359375 6.16390625 7.93359375 6.50390625 C8.35445703 11.13340234 7.80147552 13.81662968 4.93359375 17.50390625 C1.72421966 19.82793576 -1.18146646 19.97961316 -5.06640625 19.50390625 C-7.76631287 17.70396851 -9.60829275 16.42013325 -11.06640625 13.50390625 C-11.75212054 6.53247768 -11.75212054 6.53247768 -9.06640625 2.50390625 C-5.73186704 0.28088011 -3.92597288 -0.23006646 0 0 Z " fill="#040303" transform="translate(345.06640625,204.49609375)"/>
<path d="M0 0 C3.99062431 2.48472834 5.68655935 3.96748964 7.0625 8.5 C6.99256618 12.41629414 6.48078416 14.00595015 4 17 C0.57840405 19.56619697 -2.84844133 19.50984054 -7 19 C-9.91368224 17.01621635 -11.63558769 15.58551319 -12.4453125 12.0625 C-12.66348199 8.22271696 -12.23217682 6.36374368 -10.125 3.0625 C-6.78220282 -0.18197961 -4.62268262 -0.53338646 0 0 Z " fill="#060505" transform="translate(314,205)"/>
<path d="M0 0 C3.81684226 1.55500981 6.19195732 4.03595495 9 7 C9.66 4.69 10.32 2.38 11 0 C12.65 0.33 14.3 0.66 16 1 C16 6.94 16 12.88 16 19 C14.35 19.33 12.7 19.66 11 20 C8.69 17.03 6.38 14.06 4 11 C3.67 13.64 3.34 16.28 3 19 C2.01 19.33 1.02 19.66 0 20 C-0.66 19.67 -1.32 19.34 -2 19 C-2.05380578 16.20807795 -2.09357669 13.4171859 -2.125 10.625 C-2.14175781 9.8309375 -2.15851563 9.036875 -2.17578125 8.21875 C-2.19335473 6.14507985 -2.10335168 4.07116759 -2 2 C-1.34 1.34 -0.68 0.68 0 0 Z " fill="#F8E2CD" transform="translate(399,547)"/>
<path d="M0 0 C1.44826172 -0.02126953 1.44826172 -0.02126953 2.92578125 -0.04296875 C5.73468481 0.19143763 7.34189385 0.65775686 9.6875 2.1875 C11.0604863 4.9334726 10.81162634 7.1464047 10.6875 10.1875 C10.3575 11.1775 10.0275 12.1675 9.6875 13.1875 C10.57069294 16.33770361 10.57069294 16.33770361 11.6875 19.1875 C9.375 19.875 9.375 19.875 6.6875 20.1875 C4.14905991 18.37432851 3.69260975 17.20282925 2.6875 14.1875 C0.67241642 13.45426204 0.67241642 13.45426204 -1.3125 13.1875 C-1.3125 15.1675 -1.3125 17.1475 -1.3125 19.1875 C-3.25 19.75 -3.25 19.75 -5.3125 20.1875 C-6.8345959 18.6654041 -6.44209521 17.30539918 -6.4453125 15.1875 C-6.44660156 14.383125 -6.44789063 13.57875 -6.44921875 12.75 C-6.44535156 11.904375 -6.44148438 11.05875 -6.4375 10.1875 C-6.44136719 9.341875 -6.44523437 8.49625 -6.44921875 7.625 C-6.44792969 6.820625 -6.44664062 6.01625 -6.4453125 5.1875 C-6.44418457 4.445 -6.44305664 3.7025 -6.44189453 2.9375 C-6.1582366 -0.89883978 -3.19032677 0.02112799 0 0 Z M-0.3125 4.1875 C-0.6425 5.5075 -0.9725 6.8275 -1.3125 8.1875 C0.3375 8.1875 1.9875 8.1875 3.6875 8.1875 C4.0175 7.1975 4.3475 6.2075 4.6875 5.1875 C3.0375 4.8575 1.3875 4.5275 -0.3125 4.1875 Z " fill="#F6DFCB" transform="translate(496.3125,546.8125)"/>
<path d="M0 0 C3.375 2 3.375 2 6 5 C6.75178147 8.1438134 6.6852989 10.84762506 6 14 C4.20606332 16.87029869 3.01736724 18.49131638 0 20 C-8.68789809 20.42038217 -8.68789809 20.42038217 -12 18 C-14.60289813 14.0956528 -14.65160473 11.29666408 -14.578125 6.6796875 C-13.87968383 3.44231831 -13.08888112 2.5834235 -10.375 0.75 C-6.54602874 -1.09707417 -4.06905855 -1.5922403 0 0 Z M-8 5 C-9.38125018 7.76250036 -9.19079306 9.94731099 -9 13 C-7.10892859 15.33278733 -7.10892859 15.33278733 -3.9375 15.1875 C-1.11166864 15.33187793 -1.11166864 15.33187793 0 14 C0.16053815 12.12678052 0.16053815 12.12678052 0.125 10 C0.12757813 9.278125 0.13015625 8.55625 0.1328125 7.8125 C0.19695276 5.97910585 0.19695276 5.97910585 -1 5 C-3.33297433 4.95907063 -5.66705225 4.95758277 -8 5 Z " fill="#FAE1CD" transform="translate(475,547)"/>
<path d="M0 0 C3.0625 1.875 3.0625 1.875 5 5 C6.0077149 10.08021562 5.81268324 13.73018243 3 18.125 C-0.85712085 20.53570053 -3.56934625 20.82514199 -8 20 C-10.87472735 18.75011855 -12.44101438 17.74531416 -14.3125 15.25 C-15.31199111 11.9789382 -15.3581657 9.40257412 -15 6 C-10.99375822 -0.14290407 -7.04218849 -1.01990316 0 0 Z M-8 5 C-9.36952673 7.73905345 -9.12621361 9.97087332 -9 13 C-8.67 13.66 -8.34 14.32 -8 15 C-5.08347826 15.16681109 -5.08347826 15.16681109 -2 15 C0.41121859 13.04366025 0.41121859 13.04366025 0.125 9.375 C0.08375 8.26125 0.0425 7.1475 0 6 C-3.86763446 4.12456646 -3.86763446 4.12456646 -8 5 Z " fill="#FAE4D0" transform="translate(383,547)"/>
<path d="M0 0 C1.05832031 -0.03738281 2.11664063 -0.07476563 3.20703125 -0.11328125 C6.1875 0.3125 6.1875 0.3125 8.58984375 2.10546875 C10.1875 4.3125 10.1875 4.3125 9.9375 7.9375 C9.69 9.05125 9.4425 10.165 9.1875 11.3125 C9.1875 14.0408768 9.72081141 16.62904063 10.1875 19.3125 C8.375 20 8.375 20 6.1875 20.3125 C4.4375 19.125 4.4375 19.125 3.1875 17.3125 C3.1875 15.9925 3.1875 14.6725 3.1875 13.3125 C1.5375 13.3125 -0.1125 13.3125 -1.8125 13.3125 C-1.8125 15.2925 -1.8125 17.2725 -1.8125 19.3125 C-3.75 19.875 -3.75 19.875 -5.8125 20.3125 C-7.3345959 18.7904041 -6.94209521 17.43039918 -6.9453125 15.3125 C-6.94660156 14.508125 -6.94789063 13.70375 -6.94921875 12.875 C-6.94535156 12.029375 -6.94148438 11.18375 -6.9375 10.3125 C-6.94136719 9.466875 -6.94523437 8.62125 -6.94921875 7.75 C-6.94792969 6.945625 -6.94664062 6.14125 -6.9453125 5.3125 C-6.94418457 4.57 -6.94305664 3.8275 -6.94189453 3.0625 C-6.64915658 -0.89664269 -3.25906486 0.07487573 0 0 Z M-1.8125 4.3125 C-1.8125 5.6325 -1.8125 6.9525 -1.8125 8.3125 C-0.1625 8.3125 1.4875 8.3125 3.1875 8.3125 C3.1875 6.9925 3.1875 5.6725 3.1875 4.3125 C1.5375 4.3125 -0.1125 4.3125 -1.8125 4.3125 Z " fill="#FBE7D1" transform="translate(288.8125,546.6875)"/>
<path d="M0 0 C1.05832031 -0.03738281 2.11664062 -0.07476563 3.20703125 -0.11328125 C6.1875 0.3125 6.1875 0.3125 8.59375 2.05859375 C10.1875 4.3125 10.1875 4.3125 10.32421875 6.4609375 C10.17597656 7.19570313 10.02773438 7.93046875 9.875 8.6875 C9.24518637 12.49787248 9.30885854 15.50505367 10.1875 19.3125 C8.8675 19.6425 7.5475 19.9725 6.1875 20.3125 C3.1875 15.5625 3.1875 15.5625 3.1875 13.3125 C1.5375 13.3125 -0.1125 13.3125 -1.8125 13.3125 C-1.8125 15.2925 -1.8125 17.2725 -1.8125 19.3125 C-3.75 19.875 -3.75 19.875 -5.8125 20.3125 C-7.3345959 18.7904041 -6.94209521 17.43039918 -6.9453125 15.3125 C-6.94660156 14.508125 -6.94789063 13.70375 -6.94921875 12.875 C-6.94535156 12.029375 -6.94148437 11.18375 -6.9375 10.3125 C-6.94136719 9.466875 -6.94523438 8.62125 -6.94921875 7.75 C-6.94792969 6.945625 -6.94664062 6.14125 -6.9453125 5.3125 C-6.94418457 4.57 -6.94305664 3.8275 -6.94189453 3.0625 C-6.64915658 -0.89664269 -3.25906486 0.07487573 0 0 Z M-0.8125 4.3125 C-1.1425 5.6325 -1.4725 6.9525 -1.8125 8.3125 C0.1675 8.3125 2.1475 8.3125 4.1875 8.3125 C4.1875 7.3225 4.1875 6.3325 4.1875 5.3125 C2.5375 4.9825 0.8875 4.6525 -0.8125 4.3125 Z " fill="#F4DEC9" transform="translate(637.8125,546.6875)"/>
<path d="M0 0 C9.78935379 -0.61719218 9.78935379 -0.61719218 14.1875 1.625 C16.50050246 4.65583081 16.47654701 6.26704845 16 10 C15.67 10.99 15.34 11.98 15 13 C15.27571139 15.00875442 15.60235737 17.01178687 16 19 C14.125 19.625 14.125 19.625 12 20 C9.8614515 17.8614515 9.57344937 16.86724686 9 14 C7.35 13.67 5.7 13.34 4 13 C4 14.98 4 16.96 4 19 C2.0625 19.5625 2.0625 19.5625 0 20 C-1.87634259 18.12365741 -1.13246191 15.459175 -1.13671875 12.96679688 C-1.13285156 12.17337891 -1.12898437 11.37996094 -1.125 10.5625 C-1.12886719 9.77294922 -1.13273438 8.98339844 -1.13671875 8.16992188 C-1.12663067 2.25326133 -1.12663067 2.25326133 0 0 Z M5 4 C4.67 5.32 4.34 6.64 4 8 C5.98 8 7.96 8 10 8 C10 7.01 10 6.02 10 5 C8.35 4.67 6.7 4.34 5 4 Z " fill="#F8E2CB" transform="translate(182,547)"/>
<path d="M0 0 C1.93166016 0.01740234 1.93166016 0.01740234 3.90234375 0.03515625 C5.19269531 0.04417969 6.48304688 0.05320312 7.8125 0.0625 C8.81152344 0.07410156 9.81054688 0.08570313 10.83984375 0.09765625 C11.16984375 1.41765625 11.49984375 2.73765625 11.83984375 4.09765625 C8.43421523 4.87608563 5.33218619 5.19743746 1.83984375 5.09765625 C1.50984375 5.75765625 1.17984375 6.41765625 0.83984375 7.09765625 C3.80984375 7.09765625 6.77984375 7.09765625 9.83984375 7.09765625 C9.50984375 8.74765625 9.17984375 10.39765625 8.83984375 12.09765625 C6.19984375 12.09765625 3.55984375 12.09765625 0.83984375 12.09765625 C0.83984375 13.08765625 0.83984375 14.07765625 0.83984375 15.09765625 C4.46984375 15.09765625 8.09984375 15.09765625 11.83984375 15.09765625 C11.50984375 16.74765625 11.17984375 18.39765625 10.83984375 20.09765625 C8.52740583 20.12451037 6.21488105 20.14398466 3.90234375 20.16015625 C2.61457031 20.17175781 1.32679688 20.18335938 0 20.1953125 C-3.16015625 20.09765625 -3.16015625 20.09765625 -4.16015625 19.09765625 C-4.25852835 17.76722 -4.29094217 16.43172281 -4.29296875 15.09765625 C-4.29425781 14.29328125 -4.29554688 13.48890625 -4.296875 12.66015625 C-4.29300781 11.81453125 -4.28914062 10.96890625 -4.28515625 10.09765625 C-4.28902344 9.25203125 -4.29289063 8.40640625 -4.296875 7.53515625 C-4.29558594 6.73078125 -4.29429687 5.92640625 -4.29296875 5.09765625 C-4.29184082 4.35515625 -4.29071289 3.61265625 -4.28955078 2.84765625 C-4.05586249 -0.31286762 -3.22323904 0.09960566 0 0 Z " fill="#F3DDC7" transform="translate(212.16015625,546.90234375)"/>
<path d="M0 0 C1.93166016 0.01740234 1.93166016 0.01740234 3.90234375 0.03515625 C5.19269531 0.04417969 6.48304688 0.05320312 7.8125 0.0625 C8.81152344 0.07410156 9.81054688 0.08570313 10.83984375 0.09765625 C10.83984375 1.41765625 10.83984375 2.73765625 10.83984375 4.09765625 C7.10546527 4.97633354 3.67209802 5.18677844 -0.16015625 5.09765625 C-0.16015625 5.75765625 -0.16015625 6.41765625 -0.16015625 7.09765625 C3.13984375 7.09765625 6.43984375 7.09765625 9.83984375 7.09765625 C9.83984375 8.41765625 9.83984375 9.73765625 9.83984375 11.09765625 C8.83984375 12.09765625 8.83984375 12.09765625 6.9921875 12.1953125 C4.94140625 12.16276042 2.890625 12.13020833 0.83984375 12.09765625 C0.83984375 13.08765625 0.83984375 14.07765625 0.83984375 15.09765625 C4.13984375 15.09765625 7.43984375 15.09765625 10.83984375 15.09765625 C10.83984375 16.41765625 10.83984375 17.73765625 10.83984375 19.09765625 C9.83984375 20.09765625 9.83984375 20.09765625 6.93359375 20.23046875 C5.74765625 20.22789062 4.56171875 20.2253125 3.33984375 20.22265625 C2.15390625 20.22523438 0.96796875 20.2278125 -0.25390625 20.23046875 C-3.16015625 20.09765625 -3.16015625 20.09765625 -4.16015625 19.09765625 C-4.25852835 17.76722 -4.29094217 16.43172281 -4.29296875 15.09765625 C-4.29425781 14.29328125 -4.29554688 13.48890625 -4.296875 12.66015625 C-4.29300781 11.81453125 -4.28914062 10.96890625 -4.28515625 10.09765625 C-4.28902344 9.25203125 -4.29289063 8.40640625 -4.296875 7.53515625 C-4.29558594 6.73078125 -4.29429687 5.92640625 -4.29296875 5.09765625 C-4.29184082 4.35515625 -4.29071289 3.61265625 -4.28955078 2.84765625 C-4.05586249 -0.31286762 -3.22323904 0.09960566 0 0 Z " fill="#F8E1CC" transform="translate(662.16015625,546.90234375)"/>
<path d="M0 0 C1.32 0 2.64 0 4 0 C5.45703125 1.65014648 5.45703125 1.65014648 6.8125 3.93359375 C9.91214319 8.90918306 13.36774412 13.46666532 17 18.0625 C29.06307087 33.40472441 29.06307087 33.40472441 34 41 C37.44594739 37.68056466 40.41841645 34.29159983 43.25 30.4375 C44.41789062 28.85775391 44.41789062 28.85775391 45.609375 27.24609375 C46.20395508 26.43760986 46.20395508 26.43760986 46.81054688 25.61279297 C48.690956 23.06312493 50.59650039 20.53245316 52.5 18 C53.23089844 17.02546875 53.96179688 16.0509375 54.71484375 15.046875 C58.4765625 10.03125 62.23828125 5.015625 66 0 C66.495 1.485 66.495 1.485 67 3 C65.93945312 4.94189453 65.93945312 4.94189453 64.28125 7.1328125 C63.67796875 7.93976563 63.0746875 8.74671875 62.453125 9.578125 C61.80859375 10.41859375 61.1640625 11.2590625 60.5 12.125 C59.57960938 13.35089844 59.57960938 13.35089844 58.640625 14.6015625 C55.57676548 18.66954404 52.46132251 22.69538203 49.32421875 26.70703125 C47.32263301 29.27027784 45.36570763 31.84841245 43.48828125 34.50390625 C42.77027344 35.51324219 42.05226563 36.52257812 41.3125 37.5625 C40.58675781 38.59503906 39.86101562 39.62757813 39.11328125 40.69140625 C38.06720703 41.83416016 38.06720703 41.83416016 37 43 C33 43 33 43 30.859375 41.13671875 C30.16328125 40.32847656 29.4671875 39.52023437 28.75 38.6875 C28.04359375 37.88699219 27.3371875 37.08648437 26.609375 36.26171875 C25 34 25 34 25 31 C24.34 31 23.68 31 23 31 C21.7824707 29.67407227 21.7824707 29.67407227 20.42578125 27.81640625 C19.92626953 27.13980957 19.42675781 26.46321289 18.91210938 25.76611328 C18.38423828 25.0389209 17.85636719 24.31172852 17.3125 23.5625 C16.2255993 22.09219734 15.13836149 20.62214382 14.05078125 19.15234375 C13.03344532 17.76852964 12.01648158 16.38444179 11 15 C9.67541951 13.20185269 8.34422277 11.40851125 7 9.625 C6.2575 8.62339844 6.2575 8.62339844 5.5 7.6015625 C3.8218699 5.80980901 2.24424671 4.95767424 0 4 C0 2.68 0 1.36 0 0 Z " fill="#FEF1D7" transform="translate(300,435)"/>
<path d="M0 0 C5.53002295 4.05535016 9.977689 9.17467619 14.34765625 14.42578125 C13.68765625 15.08578125 13.02765625 15.74578125 12.34765625 16.42578125 C11.765 15.71292969 11.18234375 15.00007813 10.58203125 14.265625 C2.84522396 5.22718504 -6.28033343 -2.59260715 -18.65234375 -3.57421875 C-34.4049885 -4.30350786 -45.26175594 -2.48804024 -57.83984375 7.61328125 C-65.54895664 14.71377996 -69.59037446 23.27303721 -71.65234375 33.42578125 C-72.64234375 33.09578125 -73.63234375 32.76578125 -74.65234375 32.42578125 C-69.81725365 18.43488225 -64.04035776 6.18420633 -50.65234375 -1.57421875 C-34.24341094 -8.78490472 -15.71115716 -9.32488415 0 0 Z " fill="#FEF1D7" transform="translate(668.65234375,410.57421875)"/>
<path d="M0 0 C3.30978517 1.63959783 4.39629334 4.60208842 5.92578125 7.796875 C6.41208008 8.72886719 6.41208008 8.72886719 6.90820312 9.6796875 C8.38124705 12.66993512 9.15363759 14.6506491 8.8125 18 C8.58175781 18.67546875 8.35101563 19.3509375 8.11328125 20.046875 C5.24603439 19.47342563 4.25182975 19.1854235 2.11328125 17.046875 C-0.34441028 16.63008203 -0.34441028 16.63008203 -2.88671875 17.046875 C-4.51186343 18.50520858 -4.51186343 18.50520858 -5.88671875 20.046875 C-6.87671875 20.046875 -7.86671875 20.046875 -8.88671875 20.046875 C-8.49124557 14.70798708 -7.03093876 0.17468171 0 0 Z M-0.88671875 9.046875 C-0.88671875 9.706875 -0.88671875 10.366875 -0.88671875 11.046875 C-0.22671875 10.716875 0.43328125 10.386875 1.11328125 10.046875 C0.45328125 9.716875 -0.20671875 9.386875 -0.88671875 9.046875 Z " fill="#FAE3CE" transform="translate(315.88671875,546.953125)"/>
<path d="M0 0 C3.62279052 1.42380414 4.19278461 3.22070745 5.70898438 6.68359375 C6.00998047 7.42480469 6.31097656 8.16601562 6.62109375 8.9296875 C6.94916016 9.66316406 7.27722656 10.39664063 7.61523438 11.15234375 C8.5234375 13.296875 8.5234375 13.296875 9.68359375 17.0546875 C9.02359375 18.0446875 8.36359375 19.0346875 7.68359375 20.0546875 C5.80859375 19.7421875 5.80859375 19.7421875 3.68359375 19.0546875 C3.02359375 18.0646875 2.36359375 17.0746875 1.68359375 16.0546875 C-0.75357883 16.32503384 -0.75357883 16.32503384 -3.31640625 17.0546875 C-3.97640625 18.0446875 -4.63640625 19.0346875 -5.31640625 20.0546875 C-6.63640625 19.7246875 -7.95640625 19.3946875 -9.31640625 19.0546875 C-8.72890617 14.6017039 -7.58322606 10.86647908 -5.81640625 6.7421875 C-5.37296875 5.69417969 -4.92953125 4.64617188 -4.47265625 3.56640625 C-2.86199361 0.06756815 -2.86199361 0.06756815 0 0 Z " fill="#F9E4CF" transform="translate(264.31640625,546.9453125)"/>
<path d="M0 0 C0.96550781 -0.02578125 1.93101562 -0.0515625 2.92578125 -0.078125 C6.11394541 0.30066678 7.44754973 0.97350042 9.6875 3.25 C10.1875 6.75 10.1875 6.75 9.6875 10.25 C8.125 12.1875 8.125 12.1875 5.6875 13.25 C1.9375 13.4375 1.9375 13.4375 -1.3125 13.25 C-1.3125 15.23 -1.3125 17.21 -1.3125 19.25 C-3.25 19.8125 -3.25 19.8125 -5.3125 20.25 C-6.8345959 18.7279041 -6.44209521 17.36789918 -6.4453125 15.25 C-6.44660156 14.445625 -6.44789063 13.64125 -6.44921875 12.8125 C-6.44535156 11.966875 -6.44148437 11.12125 -6.4375 10.25 C-6.44136719 9.404375 -6.44523438 8.55875 -6.44921875 7.6875 C-6.44792969 6.883125 -6.44664062 6.07875 -6.4453125 5.25 C-6.44418457 4.5075 -6.44305664 3.765 -6.44189453 3 C-6.15926086 -0.8224871 -3.18985405 0.05069967 0 0 Z M-0.3125 4.25 C-0.6425 5.57 -0.9725 6.89 -1.3125 8.25 C0.0075 8.58 1.3275 8.91 2.6875 9.25 C3.3475 8.26 4.0075 7.27 4.6875 6.25 C2.2125 5.26 2.2125 5.26 -0.3125 4.25 Z " fill="#EFDAC5" transform="translate(239.3125,546.75)"/>
<path d="M0 0 C0.99 0 1.98 0 3 0 C3.95261487 4.76307437 4.08333357 9.1666528 4 14 C5.66611905 14.042721 7.33382885 14.04063832 9 14 C10.81115956 12.18884044 10.38199448 9.38721773 10.5625 6.9375 C10.64628906 5.83277344 10.73007812 4.72804688 10.81640625 3.58984375 C10.87699219 2.73519531 10.93757812 1.88054688 11 1 C12.9375 0.4375 12.9375 0.4375 15 0 C16.92770875 1.92770875 16.30577945 5.18351486 16.375 7.75 C16.31325188 14.48740602 16.31325188 14.48740602 13.9375 18.375 C10.22660635 20.42783478 8.1839616 20.6724224 4 20 C1.3046875 18.4453125 1.3046875 18.4453125 -1 16 C-1.40257954 13.20297348 -1.52741929 11.0744426 -1.375 8.3125 C-1.36082031 7.62349609 -1.34664062 6.93449219 -1.33203125 6.22460938 C-1.18332067 1.18332067 -1.18332067 1.18332067 0 0 Z " fill="#E8D3C1" transform="translate(605,547)"/>
<path d="M0 0 C0.99 0 1.98 0 3 0 C3.33 4.62 3.66 9.24 4 14 C5.65 14 7.3 14 9 14 C10.81115956 12.18884044 10.38199448 9.38721773 10.5625 6.9375 C10.64628906 5.83277344 10.73007812 4.72804688 10.81640625 3.58984375 C10.87699219 2.73519531 10.93757812 1.88054688 11 1 C12.9375 0.4375 12.9375 0.4375 15 0 C16.92770875 1.92770875 16.30577945 5.18351486 16.375 7.75 C16.31325188 14.48740602 16.31325188 14.48740602 13.9375 18.375 C10.22660635 20.42783478 8.1839616 20.6724224 4 20 C1.3046875 18.4453125 1.3046875 18.4453125 -1 16 C-1.40257954 13.20297348 -1.52741929 11.0744426 -1.375 8.3125 C-1.36082031 7.62349609 -1.34664062 6.93449219 -1.33203125 6.22460938 C-1.18332067 1.18332067 -1.18332067 1.18332067 0 0 Z " fill="#ECD6C3" transform="translate(555,547)"/>
<path d="M0 0 C0.86367187 -0.01675781 1.72734375 -0.03351562 2.6171875 -0.05078125 C5.62598383 0.38507242 6.97726199 1.17947253 9.125 3.3125 C9.625 6.8125 9.625 6.8125 9.125 10.3125 C7.5625 12.25 7.5625 12.25 5.125 13.3125 C1.375 13.5 1.375 13.5 -1.875 13.3125 C-1.875 15.2925 -1.875 17.2725 -1.875 19.3125 C-3.8125 19.875 -3.8125 19.875 -5.875 20.3125 C-7.97631385 18.21118615 -7.06014741 13.77103678 -7.0625 10.875 C-7.07474609 10.08544922 -7.08699219 9.29589844 -7.09960938 8.48242188 C-7.10487279 6.42442565 -6.99706285 4.36687991 -6.875 2.3125 C-4.37490913 -0.18759087 -3.4537141 0.01537261 0 0 Z M-1.875 4.3125 C-1.875 5.9625 -1.875 7.6125 -1.875 9.3125 C-0.225 9.3125 1.425 9.3125 3.125 9.3125 C3.455 7.9925 3.785 6.6725 4.125 5.3125 C1.155 4.8175 1.155 4.8175 -1.875 4.3125 Z " fill="#FAE4CE" transform="translate(162.875,546.6875)"/>
<path d="M0 0 C1.09570312 0.00902344 2.19140625 0.01804687 3.3203125 0.02734375 C4.16335938 0.03894531 5.00640625 0.05054688 5.875 0.0625 C6.4375 2 6.4375 2 6.875 4.0625 C5.875 5.0625 5.875 5.0625 3.80859375 5.16015625 C2.98488281 5.14855469 2.16117188 5.13695312 1.3125 5.125 C0.48621094 5.11597656 -0.34007812 5.10695313 -1.19140625 5.09765625 C-1.82949219 5.08605469 -2.46757813 5.07445312 -3.125 5.0625 C-2.795 5.7225 -2.465 6.3825 -2.125 7.0625 C-0.701875 7.0315625 -0.701875 7.0315625 0.75 7 C3.875 7.0625 3.875 7.0625 5.875 8.0625 C5.545 9.3825 5.215 10.7025 4.875 12.0625 C2.235 12.0625 -0.405 12.0625 -3.125 12.0625 C-3.125 14.3725 -3.125 16.6825 -3.125 19.0625 C-5.0625 19.625 -5.0625 19.625 -7.125 20.0625 C-8.125 19.0625 -8.125 19.0625 -8.23852539 17.29663086 C-8.23328857 16.54776611 -8.22805176 15.79890137 -8.22265625 15.02734375 C-8.21943359 14.21845703 -8.21621094 13.40957031 -8.21289062 12.57617188 C-8.20451172 11.72603516 -8.19613281 10.87589844 -8.1875 10 C-8.18298828 9.14599609 -8.17847656 8.29199219 -8.17382812 7.41210938 C-8.16200373 5.29554337 -8.14406769 3.17901315 -8.125 1.0625 C-5.36047967 -0.31976016 -3.0788637 -0.03275387 0 0 Z " fill="#F0D8C6" transform="translate(538.125,546.9375)"/>
<path d="M0 0 C0.33 0 0.66 0 1 0 C1.09796875 1.17175781 1.1959375 2.34351563 1.296875 3.55078125 C2.6729039 18.59889213 5.48004632 31.61559635 17.390625 42.10546875 C27.91433117 49.86587471 38.10443529 51.99048006 50.91796875 52.62109375 C54 53 54 53 56 55 C36.1654968 55.78552488 36.1654968 55.78552488 27 51 C25.91976562 50.44054687 24.83953125 49.88109375 23.7265625 49.3046875 C11.38137671 42.32697379 4.98221212 33.15372957 0 20 C-1.09810921 15.90346085 -1.13385162 11.98107644 -1.125 7.75 C-1.12757813 6.50734375 -1.13015625 5.2646875 -1.1328125 3.984375 C-1 1 -1 1 0 0 Z " fill="#FEF3DA" transform="translate(595,445)"/>
<path d="M0 0 C1.78125 0.1328125 1.78125 0.1328125 4 1 C5.71875 3.4921875 5.71875 3.4921875 7.5 6.875 C8.18889035 8.13880739 8.88184985 9.40040232 9.578125 10.66015625 C9.95775391 11.34867676 10.33738281 12.03719727 10.72851562 12.74658203 C13.1289945 17.00088695 15.67881283 21.15982866 18.25 25.3125 C18.75724609 26.15474121 19.26449219 26.99698242 19.78710938 27.86474609 C20.27501953 28.6480127 20.76292969 29.4312793 21.265625 30.23828125 C21.91192871 31.2907605 21.91192871 31.2907605 22.57128906 32.36450195 C24.28576785 34.32712899 25.46117009 34.63232375 28 35 C28 35.66 28 36.32 28 37 C25.7578125 37.3203125 25.7578125 37.3203125 23 37 C20.8671875 34.8046875 20.8671875 34.8046875 18.875 31.875 C18.21242187 30.92367188 17.54984375 29.97234375 16.8671875 28.9921875 C15 26 15 26 13.58203125 23.15625 C11.57175765 19.14563008 9.21238037 15.41140185 6.8125 11.625 C6.34908203 10.88894531 5.88566406 10.15289062 5.40820312 9.39453125 C4.27460416 7.59479681 3.13764469 5.79717979 2 4 C0.03058232 5.85548443 -1.08009471 7.16018941 -2.3125 9.625 C-4.119634 13.239268 -6.257814 16.43638614 -8.5234375 19.7734375 C-9.78284003 21.67253655 -10.94731183 23.57692105 -12.0625 25.5625 C-15.1625 31.0625 -15.1625 31.0625 -16.5625 33.4375 C-16.95566406 34.11683594 -17.34882813 34.79617188 -17.75390625 35.49609375 C-18.16511719 35.99238281 -18.57632813 36.48867188 -19 37 C-19.99 37 -20.98 37 -22 37 C-22 36.34 -22 35.68 -22 35 C-21.34 35 -20.68 35 -20 35 C-19.63261719 33.9790625 -19.63261719 33.9790625 -19.2578125 32.9375 C-17.75693132 29.4323365 -15.86078548 26.24370163 -13.875 23 C-13.48119141 22.3500708 -13.08738281 21.7001416 -12.68164062 21.03051758 C-9.32813573 15.50595362 -5.93640887 10.00456431 -2.53125 4.51171875 C-1.02526705 2.12031202 -1.02526705 2.12031202 0 0 Z " fill="#FEEFD6" transform="translate(152,462)"/>
<path d="M0 0 C1.09570312 0.00902344 2.19140625 0.01804687 3.3203125 0.02734375 C4.16335938 0.03894531 5.00640625 0.05054688 5.875 0.0625 C5.875 1.3825 5.875 2.7025 5.875 4.0625 C2.905 4.0625 -0.065 4.0625 -3.125 4.0625 C-3.125 5.0525 -3.125 6.0425 -3.125 7.0625 C-0.485 7.0625 2.155 7.0625 4.875 7.0625 C5.4375 9 5.4375 9 5.875 11.0625 C4.875 12.0625 4.875 12.0625 3.02734375 12.16015625 C0.9765625 12.12760417 -1.07421875 12.09505208 -3.125 12.0625 C-3.125 14.3725 -3.125 16.6825 -3.125 19.0625 C-5.0625 19.625 -5.0625 19.625 -7.125 20.0625 C-8.125 19.0625 -8.125 19.0625 -8.23852539 17.29663086 C-8.23328857 16.54776611 -8.22805176 15.79890137 -8.22265625 15.02734375 C-8.21943359 14.21845703 -8.21621094 13.40957031 -8.21289062 12.57617188 C-8.20451172 11.72603516 -8.19613281 10.87589844 -8.1875 10 C-8.18298828 9.14599609 -8.17847656 8.29199219 -8.17382812 7.41210938 C-8.16200373 5.29554337 -8.14406769 3.17901315 -8.125 1.0625 C-5.36047967 -0.31976016 -3.0788637 -0.03275387 0 0 Z " fill="#F9E5CE" transform="translate(446.125,546.9375)"/>
<path d="M0 0 C4.95 0 9.9 0 15 0 C15.33 1.32 15.66 2.64 16 4 C14.35 4.66 12.7 5.32 11 6 C11.02320313 6.75925781 11.04640625 7.51851562 11.0703125 8.30078125 C11.09738281 9.79158203 11.09738281 9.79158203 11.125 11.3125 C11.14820313 12.29863281 11.17140625 13.28476562 11.1953125 14.30078125 C11 17 11 17 9 20 C7.0625 19.625 7.0625 19.625 5 19 C3.61773984 16.23547967 3.90474613 13.9538637 3.9375 10.875 C3.94652344 9.77929688 3.95554687 8.68359375 3.96484375 7.5546875 C3.97644531 6.71164062 3.98804688 5.86859375 4 5 C2.35 4.67 0.7 4.34 -1 4 C-0.67 2.68 -0.34 1.36 0 0 Z " fill="#F9E4CE" transform="translate(580,547)"/>
<path d="M0 0 C7.61024006 0.89532236 13.2610311 6.31554339 18 12 C24.0180238 21.63256441 25.23136205 31.87736899 24 43 C21.5505613 53.41011448 16.58235729 61.14870901 7.6875 67.0625 C5.69921875 68.28515625 5.69921875 68.28515625 4 69 C3.34 68.67 2.68 68.34 2 68 C2.65226563 67.5153125 3.30453125 67.030625 3.9765625 66.53125 C11.30479141 60.91077945 18.57124294 54.57956277 20.61328125 45.17578125 C22.1184217 32.81538543 21.8062809 21.65728721 14.28515625 11.4375 C10.78991794 7.70924581 6.72272979 5.14502663 2.37890625 2.49609375 C1.59386719 2.00238281 0.80882812 1.50867188 0 1 C0 0.67 0 0.34 0 0 Z " fill="#FEF2D8" transform="translate(654,417)"/>
<path d="M0 0 C2.45898655 -0.08076963 4.91533742 -0.14037143 7.375 -0.1875 C8.07367188 -0.21263672 8.77234375 -0.23777344 9.4921875 -0.26367188 C11.5234375 -0.29296875 11.5234375 -0.29296875 15 0 C15.66 0.99 16.32 1.98 17 3 C15.04783565 4.95216435 13.46800047 5.84826645 11 7 C11.02320313 7.77085937 11.04640625 8.54171875 11.0703125 9.3359375 C11.09738281 10.84027344 11.09738281 10.84027344 11.125 12.375 C11.14820313 13.37273438 11.17140625 14.37046875 11.1953125 15.3984375 C11 18 11 18 9 20 C6.875 19.625 6.875 19.625 5 19 C4.98582031 18.09636719 4.97164063 17.19273437 4.95703125 16.26171875 C4.90933594 15.08222656 4.86164063 13.90273438 4.8125 12.6875 C4.77769531 11.51574219 4.74289062 10.34398437 4.70703125 9.13671875 C4.31136947 5.80318285 4.31136947 5.80318285 1.44921875 4.08203125 C0.64097656 3.72496094 -0.16726563 3.36789062 -1 3 C-0.67 2.01 -0.34 1.02 0 0 Z " fill="#FAE6D0" transform="translate(330,547)"/>
<path d="M0 0 C0.495 0.99 0.495 0.99 1 2 C0.07885742 4.6159668 0.07885742 4.6159668 -1.39453125 7.94921875 C-1.78873512 8.85014503 -1.78873512 8.85014503 -2.19090271 9.76927185 C-3.05749839 11.74530247 -3.93495435 13.71631085 -4.8125 15.6875 C-5.41514898 17.05614305 -6.01703138 18.42512388 -6.61816406 19.79443359 C-7.83322045 22.56000414 -9.05208099 25.32384802 -10.27392578 28.08642578 C-12.21856278 32.48806645 -14.12997748 36.90381303 -16.03833008 41.32128906 C-20.9121599 52.59895612 -25.92634404 63.81099543 -31 75 C-31.66 74.67 -32.32 74.34 -33 74 C-31.91462719 70.25053031 -30.47796729 66.88893537 -28.6875 63.4375 C-26.16746501 58.50828199 -24.19185864 53.46207805 -22.2421875 48.28515625 C-19.36417087 40.67379782 -16.20416463 33.31047581 -12.5 26.0625 C-9.62213051 20.42537169 -7.32037379 14.73327362 -5.1328125 8.80078125 C-3.78360696 5.46498687 -2.18972304 2.83852986 0 0 Z " fill="#FEF2D9" transform="translate(425,422)"/>
<path d="M0 0 C2.82721596 1.41360798 3.054646 3.09218757 4.2421875 5.99609375 C4.66886719 7.03056641 5.09554688 8.06503906 5.53515625 9.13085938 C5.97730469 10.22205078 6.41945313 11.31324219 6.875 12.4375 C7.30941406 13.49388672 7.74382812 14.55027344 8.19140625 15.63867188 C9.05401964 17.74080631 9.91053814 19.84545279 10.76074219 21.95263672 C11.57141422 23.94609776 12.39955879 25.93256458 13.24707031 27.91064453 C13.62186523 28.7973584 13.99666016 29.68407227 14.3828125 30.59765625 C14.71941895 31.37761963 15.05602539 32.15758301 15.40283203 32.96118164 C16 35 16 35 15 38 C5.1 38 -4.8 38 -15 38 C-14.67 37.34 -14.34 36.68 -14 36 C-5.09 35.67 3.82 35.34 13 35 C11.35 31.37 9.7 27.74 8 24 C7.31979206 22.00456481 6.65024429 20.00539941 6 18 C4.46233607 14.68167344 2.85760779 11.40217468 1.2421875 8.12109375 C0.04153751 5.10436627 -0.27392901 3.1978235 0 0 Z " fill="#FEF0D8" transform="translate(434,431)"/>
<path d="M0 0 C0.90720795 0.02361099 1.81441589 0.04722198 2.74911499 0.07154846 C5.65321201 0.14826146 8.55704747 0.2322529 11.4609375 0.31640625 C13.42707044 0.36961929 15.39321623 0.42235974 17.359375 0.47460938 C22.18506218 0.60388694 27.01052712 0.73969351 31.8359375 0.87890625 C32.48243943 2.15411519 33.12690388 3.43035723 33.77050781 4.70703125 C34.12961243 5.41762695 34.48871704 6.12822266 34.85870361 6.86035156 C35.9680716 9.15183979 36.82682127 11.4497343 37.5859375 13.87890625 C37.82828125 14.64203125 38.070625 15.40515625 38.3203125 16.19140625 C38.49046875 16.74828125 38.660625 17.30515625 38.8359375 17.87890625 C38.1759375 18.53890625 37.5159375 19.19890625 36.8359375 19.87890625 C36.02051319 17.79671576 35.20870561 15.71310864 34.3984375 13.62890625 C33.71974609 11.88867188 33.71974609 11.88867188 33.02734375 10.11328125 C32.13068916 7.67908453 31.43015693 5.3894237 30.8359375 2.87890625 C25.1941096 2.9971015 19.55245982 3.12134628 13.91088867 3.2512207 C11.99132925 3.29455565 10.07173165 3.33623177 8.15209961 3.3762207 C5.39425136 3.43395803 2.63659509 3.4976426 -0.12109375 3.5625 C-0.98056107 3.57921249 -1.84002838 3.59592499 -2.72554016 3.61314392 C-3.52614365 3.63308914 -4.32674713 3.65303436 -5.15161133 3.67358398 C-5.8555452 3.68912827 -6.55947906 3.70467255 -7.28474426 3.72068787 C-9.39105333 3.82372229 -9.39105333 3.82372229 -12.1640625 4.87890625 C-11.7890625 2.94140625 -11.7890625 2.94140625 -11.1640625 0.87890625 C-7.72433219 -0.8409589 -3.77535132 -0.11513434 0 0 Z " fill="#FEEDD4" transform="translate(423.1640625,477.12109375)"/>
<path d="M0 0 C2.52588702 2.36292656 3.88820837 3.66462511 5 7 C6.6523367 8.68087447 8.32140347 10.34534921 10 12 C11.64242763 14.04432673 13.2417714 16.09058359 14.8125 18.1875 C15.6879823 19.34176808 16.5642942 20.49540736 17.44140625 21.6484375 C17.87211426 22.21530273 18.30282227 22.78216797 18.74658203 23.36621094 C20.54524237 25.71070548 22.39500321 28.0124464 24.25 30.3125 C27.59799746 34.47213321 30.82360075 38.70858155 34 43 C34.55042969 43.69351563 35.10085938 44.38703125 35.66796875 45.1015625 C37 47 37 47 37 49 C37.99 49.495 37.99 49.495 39 50 C36 50 36 50 34.5612793 48.65820312 C34.07054932 48.03880859 33.57981934 47.41941406 33.07421875 46.78125 C32.52443359 46.09546875 31.97464844 45.4096875 31.40820312 44.703125 C30.84037109 43.97609375 30.27253906 43.2490625 29.6875 42.5 C29.13126953 41.80390625 28.57503906 41.1078125 28.00195312 40.390625 C24.77576753 36.33441959 21.64527353 32.21248369 18.54711914 28.05810547 C15.70251964 24.27398463 12.78546952 20.54603778 9.875 16.8125 C9.26785156 16.03197266 8.66070312 15.25144531 8.03515625 14.44726562 C7.44347656 13.68736328 6.85179687 12.92746094 6.2421875 12.14453125 C5.68370117 11.42346191 5.12521484 10.70239258 4.54980469 9.95947266 C3.24860785 8.31432366 1.88491446 6.71887508 0.5078125 5.13671875 C0.01023437 4.43160156 -0.48734375 3.72648437 -1 3 C-0.67 2.01 -0.34 1.02 0 0 Z " fill="#FFF1DB" transform="translate(296,409)"/>
<path d="M0 0 C1.32 0 2.64 0 4 0 C4.01030746 1.06631149 4.02061493 2.13262299 4.03123474 3.23124695 C4.12899663 13.28087261 4.23173339 23.33043675 4.33933926 33.37996197 C4.39450039 38.54649946 4.44790949 43.71304268 4.49731445 48.87963867 C4.54505846 53.86579568 4.59740484 58.8518851 4.65294075 63.8379612 C4.67331885 65.74012379 4.69203934 67.64230488 4.70907402 69.54450035 C4.73321877 72.20901549 4.7632594 74.87340387 4.79467773 77.5378418 C4.8004332 78.32402893 4.80618866 79.11021606 4.81211853 79.92022705 C4.85301571 82.97217875 4.96853016 85.84458047 5.57533264 88.84138489 C6 91 6 91 5 94 C4.34 94 3.68 94 3 94 C2.67 63.97 2.34 33.94 2 3 C0.68 4.32 -0.64 5.64 -2 7 C-2.33 6.01 -2.66 5.02 -3 4 C-2.34 3.67 -1.68 3.34 -1 3 C-0.67 2.01 -0.34 1.02 0 0 Z " fill="#FEF0D8" transform="translate(375,405)"/>
<path d="M0 0 C4.17151627 1.50028217 5.42100182 3.95110333 7.5 7.75 C9.30244631 10.9752284 11.07474087 14.1121113 13.125 17.1875 C15.66235934 20.99353901 17.80786936 24.98811988 20 29 C22.38863149 33.37010989 24.95356693 37.42031489 28.046875 41.32421875 C29 43 29 43 29 47 C27.68 46.67 26.36 46.34 25 46 C24.9175 45.31679688 24.835 44.63359375 24.75 43.9296875 C23.80422138 40.23523977 22.0047855 37.32076791 20 34.125 C19.18070202 32.79184335 18.3617002 31.45850465 17.54296875 30.125 C17.12192871 29.444375 16.70088867 28.76375 16.26708984 28.0625 C14.63508902 25.40601774 13.04429072 22.72608728 11.45288086 20.04516602 C8.13369026 14.45633406 4.73590873 8.95759373 0.99609375 3.63671875 C0 2 0 2 0 0 Z " fill="#FFF1D9" transform="translate(160,452)"/>
<path d="M0 0 C0 3.98183884 -1.36569618 4.94365658 -3.9375 7.9375 C-7.25614351 11.87936295 -10.4349778 15.85384123 -13.5 20 C-17.14730705 24.91179156 -20.94914659 29.66116056 -24.84765625 34.375 C-27.97594602 38.19026447 -30.99527327 42.0870922 -34 46 C-34.495 44.515 -34.495 44.515 -35 43 C-33.51194605 40.73958939 -32.01612622 38.71164839 -30.3125 36.625 C-29.86455078 36.06039062 -29.41660156 35.49578125 -28.95507812 34.9140625 C-27.64629539 33.26808246 -26.32456472 31.63329019 -25 30 C-24.30519531 29.13117188 -23.61039062 28.26234375 -22.89453125 27.3671875 C-21.66937327 25.83637156 -20.44167709 24.30758207 -19.2109375 22.78125 C-16.21853302 19.06302826 -13.24380157 15.33701566 -10.36328125 11.53125 C-9.69643311 10.65243164 -9.69643311 10.65243164 -9.01611328 9.75585938 C-8.1445211 8.60398672 -7.27686211 7.4491251 -6.41357422 6.29101562 C-4.40291734 3.63601073 -2.80393767 1.86929178 0 0 Z " fill="#FFF4D9" transform="translate(371,413)"/>
<path d="M0 0 C0.99 0.33 1.98 0.66 3 1 C3.144375 2.134375 3.28875 3.26875 3.4375 4.4375 C3.61171478 7.80777201 3.61171478 7.80777201 5 9 C6.99958364 9.04080783 9.00045254 9.04254356 11 9 C11.33 7.68 11.66 6.36 12 5 C12.66 5 13.32 5 14 5 C13.39816251 7.02045442 12.72693904 9.02111039 12 11 C11.01 11.495 11.01 11.495 10 12 C11.96614267 11.85342916 11.96614267 11.85342916 14 11 C15.1375213 8.91965706 15.1375213 8.91965706 15.75 6.4375 C15.99234375 5.61121094 16.2346875 4.78492188 16.484375 3.93359375 C16.65453125 3.29550781 16.8246875 2.65742187 17 2 C17.33 2 17.66 2 18 2 C18.32470459 6.13998349 18.4304413 8.33999001 16.125 11.875 C13.14933135 14.85066865 12.45985186 14.9777491 8.125 15.1875 C4.92515855 15.14112549 2.65544873 14.94052023 0 13 C-2.13586678 9.79619983 -2.23132175 8.98060033 -2.125 5.3125 C-2.10695313 4.50425781 -2.08890625 3.69601562 -2.0703125 2.86328125 C-2.04710937 2.24839844 -2.02390625 1.63351562 -2 1 C-1.67 1 -1.34 1 -1 1 C-0.67 3.64 -0.34 6.28 0 9 C0.33 8.67 0.66 8.34 1 8 C0.67 8 0.34 8 0 8 C0 5.36 0 2.72 0 0 Z " fill="#F0D8C5" transform="translate(463,552)"/>
<path d="M0 0 C0.928125 0.515625 1.85625 1.03125 2.8125 1.5625 C3.58412899 10.39336516 3.58412899 10.39336516 0.75 14.6875 C-2.82879177 16.97183517 -5.01797551 16.97127691 -9.1875 16.5625 C-8.5275 16.2325 -7.8675 15.9025 -7.1875 15.5625 C-8.1775 14.2425 -9.1675 12.9225 -10.1875 11.5625 C-7.8775 10.9025 -5.5675 10.2425 -3.1875 9.5625 C-2.72227707 4.76941658 -2.72227707 4.76941658 -4.6875 0.625 C-5.1825 0.274375 -5.6775 -0.07625 -6.1875 -0.4375 C-3.1875 -1.4375 -3.1875 -1.4375 0 0 Z " fill="#F6E0C9" transform="translate(385.1875,550.4375)"/>
<path d="M0 0 C0.71994141 -0.01224609 1.43988281 -0.02449219 2.18164062 -0.03710938 C5.9801247 -0.04769011 7.70116518 0.02994345 10.9375 2.1875 C10.38400879 2.19160889 9.83051758 2.19571777 9.26025391 2.19995117 C-5.70672179 2.15205918 -5.70672179 2.15205918 -19.0625 8.1875 C-20.135 8.909375 -21.2075 9.63125 -22.3125 10.375 C-26.04907634 14.19649853 -28.50657463 18.51976395 -31.0625 23.1875 C-31.7225 22.8575 -32.3825 22.5275 -33.0625 22.1875 C-30.92017522 14.52199414 -26.08029146 8.76827116 -19.38671875 4.46875 C-12.74892663 1.08593446 -7.44973411 0.00670543 0 0 Z " fill="#FEF1DA" transform="translate(642.0625,414.8125)"/>
<path d="M0 0 C1.88671875 0.2890625 1.88671875 0.2890625 4 1 C5.8125 4.375 5.8125 4.375 7 8 C6.67 8.99 6.34 9.98 6 11 C4.25728062 8.702779 2.60088848 6.40133271 1 4 C0.69707031 4.79921875 0.39414063 5.5984375 0.08203125 6.421875 C-10.41657922 33.94438615 -10.41657922 33.94438615 -15 37 C-12.48998474 28.90630167 -9.18401726 21.19978454 -5.8125 13.4375 C-5.24770722 12.12970392 -4.68325152 10.82176222 -4.11914062 9.51367188 C-2.74997252 6.34076099 -1.37626474 3.16984025 0 0 Z " fill="#FEF1D9" transform="translate(234,431)"/>
<path d="M0 0 C4.21878192 -0.19622241 7.17010894 0.19769832 11 2 C11.33 1.34 11.66 0.68 12 0 C13 1 13 1 13.125 3.875 C13 7 13 7 12 10 C12.27571139 12.00875442 12.60235737 14.01178687 13 16 C11.125 16.625 11.125 16.625 9 17 C6.80808632 14.80808632 6.72130648 13.88522592 6 11 C5.34 10.34 4.68 9.68 4 9 C4.66 9 5.32 9 6 9 C6.33 6.69 6.66 4.38 7 2 C3.37114676 1.84850702 3.37114676 1.84850702 0 3 C0 2.01 0 1.02 0 0 Z " fill="#F1DAC5" transform="translate(185,550)"/>
<path d="M0 0 C4.62 0 9.24 0 14 0 C14 1.32 14 2.64 14 4 C10.26562152 4.87867729 6.83225427 5.08912219 3 5 C3 5.66 3 6.32 3 7 C6.3 7 9.6 7 13 7 C13 8.32 13 9.64 13 11 C12 12 12 12 10.15234375 12.09765625 C8.1015625 12.06510417 6.05078125 12.03255208 4 12 C4 12.99 4 13.98 4 15 C7.3 15 10.6 15 14 15 C13.67 15.66 13.34 16.32 13 17 C9.37 16.67 5.74 16.34 2 16 C2 14.35 2 12.7 2 11 C2.66 11 3.32 11 4 11 C4 10.34 4 9.68 4 9 C3.34 8.67 2.68 8.34 2 8 C2 6.35 2 4.7 2 3 C5.63 3 9.26 3 13 3 C13 2.34 13 1.68 13 1 C8.71 1 4.42 1 0 1 C0 0.67 0 0.34 0 0 Z " fill="#E9D3C0" transform="translate(659,547)"/>
<path d="M0 0 C3.96 0 7.92 0 12 0 C13.07748715 4.30994861 12.89198789 5.03281805 11.3125 8.9375 C9.26786392 14.21534953 7.55880606 19.53785586 5.9296875 24.95703125 C5.00317469 27.98960891 4.01482007 30.99595298 3 34 C2.34 34 1.68 34 1 34 C2.25649175 27.73893229 3.96323931 21.77707449 6.0625 15.75 C8.43292732 8.98530159 8.43292732 8.98530159 10 2 C8.54054712 2.08708669 7.08234132 2.19526907 5.625 2.3125 C4.40683594 2.39951172 4.40683594 2.39951172 3.1640625 2.48828125 C0.62078662 2.82990528 0.62078662 2.82990528 -1 6 C-1.33 5.34 -1.66 4.68 -2 4 C-1.34 2.68 -0.68 1.36 0 0 Z " fill="#FEEFD8" transform="translate(575,405)"/>
<path d="M0 0 C2.475 0.99 2.475 0.99 5 2 C5 3.65 5 5.3 5 7 C6.65 6.67 8.3 6.34 10 6 C10 5.01 10 4.02 10 3 C10.66 3 11.32 3 12 3 C11.67 4.65 11.34 6.3 11 8 C9.02 8.33 7.04 8.66 5 9 C5 11.97 5 14.94 5 18 C3.68 18.33 2.36 18.66 1 19 C0 18 0 18 -0.11352539 16.23413086 C-0.10828857 15.48526611 -0.10305176 14.73640137 -0.09765625 13.96484375 C-0.09443359 13.15595703 -0.09121094 12.34707031 -0.08789062 11.51367188 C-0.07951172 10.66353516 -0.07113281 9.81339844 -0.0625 8.9375 C-0.05798828 8.08349609 -0.05347656 7.22949219 -0.04882812 6.34960938 C-0.03700373 4.23304337 -0.01906769 2.11651315 0 0 Z " fill="#F3DCC8" transform="translate(282,548)"/>
<path d="M0 0 C3.24812693 0.84648156 4.88992576 2.9648036 6.93359375 5.50390625 C7.26359375 5.83390625 7.59359375 6.16390625 7.93359375 6.50390625 C8.35445703 11.13340234 7.80147552 13.81662968 4.93359375 17.50390625 C1.72421966 19.82793576 -1.18146646 19.97961316 -5.06640625 19.50390625 C-7.76631287 17.70396851 -9.60829275 16.42013325 -11.06640625 13.50390625 C-11.75212054 6.53247768 -11.75212054 6.53247768 -9.06640625 2.50390625 C-5.73186704 0.28088011 -3.92597288 -0.23006646 0 0 Z M-8.06640625 3.50390625 C-9.69918983 6.7694734 -9.68912505 9.98696031 -9.06640625 13.50390625 C-7.66955619 16.15089345 -7.66955619 16.15089345 -5.06640625 17.50390625 C-1.12624612 18.06678627 0.99141571 18.10786653 4.37109375 15.94140625 C6.53755403 12.56172821 6.49647377 10.44406638 5.93359375 6.50390625 C4.58058095 3.90075631 4.58058095 3.90075631 1.93359375 2.50390625 C-1.58335219 1.88118745 -4.8008391 1.87112267 -8.06640625 3.50390625 Z " fill="#AD9C8E" transform="translate(345.06640625,204.49609375)"/>
<path d="M0 0 C3 1 3 1 4.24609375 3.40625 C4.63925781 4.4271875 5.03242188 5.448125 5.4375 6.5 C5.86675781 7.58667969 6.29601562 8.67335938 6.73828125 9.79296875 C7.15464844 10.85128906 7.57101562 11.90960938 8 13 C8.69731059 14.60898874 9.40435445 16.21382655 10.125 17.8125 C11.25324004 20.32519396 12.35796842 22.84044759 13.4375 25.375 C14.35373252 27.50065946 15.29561767 29.61616695 16.296875 31.703125 C16.75578125 32.66734375 17.2146875 33.6315625 17.6875 34.625 C18.34298828 35.97464844 18.34298828 35.97464844 19.01171875 37.3515625 C20.03900143 40.10451767 20.19438358 42.08949988 20 45 C17.47695822 41.89928273 15.86626102 38.77802858 14.2578125 35.125 C13.74863281 33.97386719 13.23945313 32.82273437 12.71484375 31.63671875 C12.19019531 30.43660156 11.66554688 29.23648437 11.125 28 C10.60808594 26.83082031 10.09117187 25.66164063 9.55859375 24.45703125 C7.03876977 18.73823677 4.55588102 13.00387308 2.1171875 7.25 C1.70839355 6.28578125 1.29959961 5.3215625 0.87841797 4.328125 C0 2 0 2 0 0 Z " fill="#FEF0D8" transform="translate(438,415)"/>
<path d="M0 0 C0.33 0 0.66 0 1 0 C1.33 3.63 1.66 7.26 2 11 C4.64 10.34 7.28 9.68 10 9 C7.03 8.505 7.03 8.505 4 8 C4 5.69 4 3.38 4 1 C4.33 1 4.66 1 5 1 C5 2.98 5 4.96 5 7 C7.44480079 6.81171228 7.44480079 6.81171228 10 6 C11.36020151 4.03241727 11.36020151 4.03241727 12 2 C12.99 3.485 12.99 3.485 14 5 C14.66 3.68 15.32 2.36 16 1 C16.48309179 7.40096618 16.48309179 7.40096618 14.4375 9.9375 C11.19917389 11.34907805 8.49186021 11.20145347 5 11 C5 12.98 5 14.96 5 17 C3.0625 17.5625 3.0625 17.5625 1 18 C0 17 0 17 -0.09765625 13.18359375 C-0.09098089 11.60153318 -0.07901875 10.01948841 -0.0625 8.4375 C-0.05798828 7.63119141 -0.05347656 6.82488281 -0.04882812 5.99414062 C-0.03700518 3.99606244 -0.01906914 1.99802217 0 0 Z " fill="#EAD2BF" transform="translate(156,549)"/>
<path d="M0 0 C0.99 0.33 1.98 0.66 3 1 C3 6.94 3 12.88 3 19 C2.01 19.33 1.02 19.66 0 20 C-0.66 19.67 -1.32 19.34 -2 19 C-2.05380578 16.20807795 -2.09357669 13.4171859 -2.125 10.625 C-2.14175781 9.8309375 -2.15851563 9.036875 -2.17578125 8.21875 C-2.19335473 6.14507985 -2.10335168 4.07116759 -2 2 C-1.34 1.34 -0.68 0.68 0 0 Z " fill="#EFDAC8" transform="translate(356,547)"/>
<path d="M0 0 C3.99062431 2.48472834 5.68655935 3.96748964 7.0625 8.5 C6.99256618 12.41629414 6.48078416 14.00595015 4 17 C0.57840405 19.56619697 -2.84844133 19.50984054 -7 19 C-9.91368224 17.01621635 -11.63558769 15.58551319 -12.4453125 12.0625 C-12.66348199 8.22271696 -12.23217682 6.36374368 -10.125 3.0625 C-6.78220282 -0.18197961 -4.62268262 -0.53338646 0 0 Z M-11 7 C-11.06917883 10.94319321 -10.52341174 13.16254122 -8.4375 16.5 C-5.29265575 18.43528877 -3.40139553 18.27533231 0.16015625 17.60546875 C2.16755034 17.07184271 2.16755034 17.07184271 4 15.3125 C5.34038506 12.21285954 5.54667869 10.34840698 5 7 C2.54405875 3.67725596 1.0743356 2.22381992 -3 1.375 C-7.11289267 2.23185264 -8.59686932 3.57735933 -11 7 Z " fill="#BAA899" transform="translate(314,205)"/>
<path d="M0 0 C0.66 0 1.32 0 2 0 C9.37100808 15.71515487 9.37100808 15.71515487 12.08984375 21.94140625 C12.75096522 23.43673248 13.43355791 24.92262323 14.12890625 26.40234375 C14.49886719 27.19769531 14.86882812 27.99304688 15.25 28.8125 C15.58515625 29.52019531 15.9203125 30.22789062 16.265625 30.95703125 C17 33 17 33 17 37 C16.34 37 15.68 37 15 37 C14.68772461 36.25951416 14.37544922 35.51902832 14.05371094 34.75610352 C12.620024 31.35786222 11.18502143 27.96017797 9.75 24.5625 C9.25886719 23.39783203 8.76773437 22.23316406 8.26171875 21.03320312 C5.80382029 15.21617678 3.32641767 9.41812857 0.67285156 3.68725586 C0 2 0 2 0 0 Z " fill="#FEEFD8" transform="translate(458,461)"/>
<path d="M0 0 C1.09570312 0.00902344 2.19140625 0.01804687 3.3203125 0.02734375 C4.16335938 0.03894531 5.00640625 0.05054688 5.875 0.0625 C6.205 1.3825 6.535 2.7025 6.875 4.0625 C3.575 4.0625 0.275 4.0625 -3.125 4.0625 C-3.125 3.4025 -3.125 2.7425 -3.125 2.0625 C-4.115 2.0625 -5.105 2.0625 -6.125 2.0625 C-6.125 8.0025 -6.125 13.9425 -6.125 20.0625 C-6.785 19.7325 -7.445 19.4025 -8.125 19.0625 C-8.125 13.1225 -8.125 7.1825 -8.125 1.0625 C-5.36047967 -0.31976016 -3.0788637 -0.03275387 0 0 Z " fill="#FBEAD2" transform="translate(538.125,546.9375)"/>
<path d="M0 0 C1.33332095 2.6666419 0.67102033 4.16680303 0 7 C0.66 6.01 1.32 5.02 2 4 C2.66 3.01 3.32 2.02 4 1 C5 4 5 4 4.0625 6.1875 C3.711875 6.785625 3.36125 7.38375 3 8 C3.99 7.67 4.98 7.34 6 7 C6 7.66 6 8.32 6 9 C5.360625 9.12375 4.72125 9.2475 4.0625 9.375 C3.381875 9.58125 2.70125 9.7875 2 10 C1.67 10.66 1.34 11.32 1 12 C1.66 12.33 2.32 12.66 3 13 C-1.625 17 -1.625 17 -5 17 C-4.53444296 10.59859065 -2.85288164 5.73230171 0 0 Z " fill="#EDD7C4" transform="translate(312,550)"/>
<path d="M0 0 C0.33 0 0.66 0 1 0 C0.72433376 6.06465723 -1.57773226 10.38780469 -4.37109375 15.71875 C-6.57632561 20.16094368 -8.29790382 24.73608993 -10.01953125 29.3828125 C-11 32 -11 32 -12 34 C-12.66 34 -13.32 34 -14 34 C-13.37251236 29.93627052 -12.0404232 26.69159423 -10.25 23 C-7.55854624 17.3194798 -5.24187177 11.5795037 -3.078125 5.6796875 C-2 3 -2 3 0 0 Z " fill="#FEEFD7" transform="translate(432,432)"/>
<path d="M0 0 C1.32 0 2.64 0 4 0 C4.33 2.31 4.66 4.62 5 7 C4.34 5.68 3.68 4.36 3 3 C2.34 3 1.68 3 1 3 C0.86787109 3.73065674 0.73574219 4.46131348 0.59960938 5.21411133 C0.04567992 7.78776322 -0.67722684 10.11066953 -1.59375 12.57421875 C-2.05587891 13.82235352 -2.05587891 13.82235352 -2.52734375 15.09570312 C-2.84832031 15.95099609 -3.16929687 16.80628906 -3.5 17.6875 C-3.82097656 18.55439453 -4.14195312 19.42128906 -4.47265625 20.31445312 C-6.84211151 26.68422302 -6.84211151 26.68422302 -8 29 C-8.99 28.67 -9.98 28.34 -11 28 C-10.52949219 26.96101563 -10.05898438 25.92203125 -9.57421875 24.8515625 C-6.4767452 17.93824043 -3.47305006 11.1588578 -1.5078125 3.8203125 C-1 2 -1 2 0 0 Z " fill="#FEF0D7" transform="translate(528,404)"/>
<path d="M0 0 C2.71991416 2.71991416 3.32076802 5.83825711 4.375 9.4375 C6.14916531 15.33436123 8.0746745 21.11763813 10.30078125 26.86328125 C11 29 11 29 11 32 C10.01 31.67 9.02 31.34 8 31 C7.04032808 28.527115 6.2688988 26.17034228 5.5625 23.625 C5.13654004 22.16335348 4.70814032 20.70241582 4.27734375 19.2421875 C4.06577637 18.5212793 3.85420898 17.80037109 3.63623047 17.05761719 C2.49679357 13.37259255 1.05424549 9.80509196 -0.3984375 6.234375 C-1.07107824 3.7359951 -0.85172813 2.41138614 0 0 Z " fill="#FFF3DC" transform="translate(477,418)"/>
<path d="M0 0 C0.99 0 1.98 0 3 0 C3.1079859 2.43868168 3.18726589 4.87259133 3.25 7.3125 C3.30027344 8.34793945 3.30027344 8.34793945 3.3515625 9.40429688 C3.45039862 14.51906588 3.45039862 14.51906588 1.15625 16.96875 C-1.39606769 18.18942368 -3.2036629 18.23302809 -6 18 C-4 15 -4 15 -1 14 C-0.67 9.38 -0.34 4.76 0 0 Z " fill="#F9E2CC" transform="translate(616,548)"/>
<path d="M0 0 C1.8125 0.125 1.8125 0.125 4 1 C5.8125 3.875 5.8125 3.875 7 7 C6.67 7.99 6.34 8.98 6 10 C3.2160817 8.60804085 3.02101003 6.84424221 2 4 C0.21178226 6.68232661 -1.20142604 9.30288961 -2.625 12.1875 C-3.29402344 13.53908203 -3.29402344 13.53908203 -3.9765625 14.91796875 C-4.48316406 15.94857422 -4.48316406 15.94857422 -5 17 C-5.66 16.34 -6.32 15.68 -7 15 C-6.20928784 13.24956851 -5.41739082 11.49967222 -4.625 9.75 C-4.18414062 8.77546875 -3.74328125 7.8009375 -3.2890625 6.796875 C-2.23361862 4.50688161 -1.14456065 2.24633399 0 0 Z " fill="#FEF0D8" transform="translate(432,404)"/>
<path d="M0 0 C1.06992187 -0.04898437 2.13984375 -0.09796875 3.2421875 -0.1484375 C6.125 0.375 6.125 0.375 8.05859375 2.75390625 C9.125 5.375 9.125 5.375 8.3125 7.6875 C7.920625 8.244375 7.52875 8.80125 7.125 9.375 C6.465 7.395 5.805 5.415 5.125 3.375 C1.825 3.045 -1.475 2.715 -4.875 2.375 C-4.359375 3.4475 -3.84375 4.52 -3.3125 5.625 C-2.24259718 8.08977612 -1.83927218 9.09632303 -2.1875 11.8125 C-2.414375 12.328125 -2.64125 12.84375 -2.875 13.375 C-5.09507455 9.56915791 -5.96356417 5.65173737 -6.875 1.375 C-5.06460804 -0.43539196 -2.44409565 0.07619483 0 0 Z " fill="#FEF0D8" transform="translate(478.875,404.625)"/>
<path d="M0 0 C0.66 0 1.32 0 2 0 C0.27973101 6.2774728 -1.8060202 12.39858836 -4.0625 18.5 C-4.3198291 19.20640625 -4.5771582 19.9128125 -4.84228516 20.640625 C-6.76129649 25.76129649 -6.76129649 25.76129649 -9 28 C-10 26 -10 26 -8.92578125 22.65625 C-8.39601464 21.26775695 -7.85773867 19.88249065 -7.3125 18.5 C-7.03647949 17.78328125 -6.76045898 17.0665625 -6.47607422 16.328125 C-5.65949717 14.21519031 -4.83201923 12.10689566 -4 10 C-3.57332031 8.9171875 -3.14664063 7.834375 -2.70703125 6.71875 C-1.81410958 4.47516343 -0.91345901 2.23528793 0 0 Z " fill="#FFF4D9" transform="translate(517,434)"/>
<path d="M0 0 C0.66 0 1.32 0 2 0 C0.68764148 6.36430174 -1.01219415 12.42121028 -3.125 18.5625 C-3.54072266 19.78936523 -3.54072266 19.78936523 -3.96484375 21.04101562 C-4.63905137 23.02876568 -5.31892204 25.01459349 -6 27 C-6.33 27 -6.66 27 -7 27 C-7.57514499 20.89935496 -5.48662021 15.78571706 -3.5 10.125 C-3.16613281 9.15046875 -2.83226562 8.1759375 -2.48828125 7.171875 C-1.6669627 4.77831808 -0.83735349 2.38798455 0 0 Z " fill="#FFF4DA" transform="translate(563,440)"/>
<path d="M0 0 C1.86307941 0.47423839 3.72455474 0.95634092 5.57421875 1.48046875 C11.23747037 2.69337127 17.43168426 2.62626044 23 1 C23 1.99 23 2.98 23 4 C14.85242347 6.71585884 5.63761212 5.66605382 -2 2 C-1.34 1.34 -0.68 0.68 0 0 Z " fill="#FEF1DA" transform="translate(629,484)"/>
<path d="M0 0 C0.66 0 1.32 0 2 0 C0.68764148 6.36430174 -1.01219415 12.42121028 -3.125 18.5625 C-3.54072266 19.78936523 -3.54072266 19.78936523 -3.96484375 21.04101562 C-4.63905137 23.02876568 -5.31892204 25.01459349 -6 27 C-6.33 27 -6.66 27 -7 27 C-5.9406522 17.67773936 -3.50926216 8.68960154 0 0 Z " fill="#FFF3DB" transform="translate(572,412)"/>
<path d="M0 0 C2.79299274 2.79299274 3.68853624 6.1670203 5 9.8125 C5.52038849 11.2358398 6.0412121 12.6590206 6.5625 14.08203125 C6.80742188 14.75830566 7.05234375 15.43458008 7.3046875 16.13134766 C7.89247621 17.71102983 8.53420077 19.27048407 9.1875 20.82421875 C10 23 10 23 10 26 C9.34 26 8.68 26 8 26 C7.59007812 24.90300781 7.18015625 23.80601562 6.7578125 22.67578125 C6.21357114 21.22134314 5.66929867 19.76691667 5.125 18.3125 C4.85558594 17.59126953 4.58617187 16.87003906 4.30859375 16.12695312 C4.04433594 15.42119141 3.78007813 14.71542969 3.5078125 13.98828125 C3.25016113 13.29968018 2.99250977 12.6110791 2.72705078 11.90161133 C2.11791641 10.30841201 1.46975696 8.73020745 0.8125 7.15625 C-0.12953895 4.65622355 -0.15141956 2.64984227 0 0 Z " fill="#FFF0DB" transform="translate(531,434)"/>
<path d="M0 0 C0.66 0.33 1.32 0.66 2 1 C1.34 2.32 0.68 3.64 0 5 C-0.66 5 -1.32 5 -2 5 C-2.33 5.99 -2.66 6.98 -3 8 C-3.99 7.34 -4.98 6.68 -6 6 C-5.34 6.66 -4.68 7.32 -4 8 C-3.43479997 10.65537372 -3.26211802 13.29144713 -3 16 C-4.32 15.67 -5.64 15.34 -7 15 C-7.33 11.7 -7.66 8.4 -8 5 C-1.9453125 0.99609375 -1.9453125 0.99609375 0 0 Z " fill="#FCEBD4" transform="translate(469,546)"/>
<path d="M0 0 C0.33 0 0.66 0 1 0 C1.33 4.29 1.66 8.58 2 13 C2.33 13 2.66 13 3 13 C3.33 8.71 3.66 4.42 4 0 C6.24234009 3.36351013 6.27098215 4.62310056 6.25 8.5625 C6.25515625 9.53316406 6.2603125 10.50382813 6.265625 11.50390625 C6 14 6 14 4 16 C2.68 15.67 1.36 15.34 0 15 C0 10.05 0 5.1 0 0 Z " fill="#F0D8C9" transform="translate(335,551)"/>
<path d="M0 0 C1.32 0.66 2.64 1.32 4 2 C4.2389871 4.86784522 4.14820847 6.67742863 2.9375 9.3125 C1 11 1 11 -2.6875 11.25 C-3.780625 11.1675 -4.87375 11.085 -6 11 C-6.33 10.01 -6.66 9.02 -7 8 C-4.36 7.67 -1.72 7.34 1 7 C0.67 4.69 0.34 2.38 0 0 Z " fill="#FBE4CE" transform="translate(244,549)"/>
<path d="M0 0 C2.59487555 1.29743778 3.02269781 2.29362471 4 5 C3.625 7.75 3.625 7.75 3 10 C1.35 9.67 -0.3 9.34 -2 9 C-2.6875 6.75 -2.6875 6.75 -3 4 C-1.5625 1.6875 -1.5625 1.6875 0 0 Z " fill="#F2DFC5" transform="translate(295,557)"/>
<path d="M0 0 C4.23315493 1.56783516 6.42641166 4.38306504 9 8 C9.8125 11.375 9.8125 11.375 10 14 C5.94716257 12.64905419 5.12943872 10.62004582 3 7 C2.25 4.625 2.25 4.625 2 3 C0.68 2.67 -0.64 2.34 -2 2 C-1.34 1.34 -0.68 0.68 0 0 Z " fill="#FEEFD6" transform="translate(399,547)"/>
<path d="M0 0 C3.30049721 4.06668407 5.28608324 8.60420856 7.5 13.3203125 C8.86765703 16.2404537 8.86765703 16.2404537 12 18 C10.35 18.33 8.7 18.66 7 19 C3.5178994 13.17814801 0.89536276 7.51819877 -1 1 C-0.67 0.67 -0.34 0.34 0 0 Z " fill="#FFEDD9" transform="translate(257,480)"/>
<path d="M0 0 C3.36041075 1.39597363 4.83359754 2.85246887 6.8125 5.875 C9.73212957 9.98189582 12.48565205 11.83311299 17 14 C16.34 14.66 15.68 15.32 15 16 C8.42071596 12.59927916 3.95242092 8.28681953 0 2 C0 1.34 0 0.68 0 0 Z " fill="#FEF1DB" transform="translate(610,469)"/>
<path d="M0 0 C3.23948608 0.84905885 4.90715111 2.96987639 6.9375 5.5078125 C6.6075 6.4978125 6.2775 7.4878125 5.9375 8.5078125 C5.4425 7.6828125 4.9475 6.8578125 4.4375 6.0078125 C1.78950404 3.35981654 1.38557368 3.09401083 -2.125 2.9453125 C-5.98653102 3.13298444 -5.98653102 3.13298444 -8 5.1953125 C-9.12468055 7.64314664 -9.69257332 9.84434038 -10.0625 12.5078125 C-10.3925 12.5078125 -10.7225 12.5078125 -11.0625 12.5078125 C-11.47918469 8.25762871 -11.50272082 6.15438682 -9.0625 2.5703125 C-5.7220563 0.27375746 -3.96391111 -0.22522222 0 0 Z " fill="#D7C2B0" transform="translate(345.0625,204.4921875)"/>
<path d="M0 0 C1.67542976 0.28604898 3.34385343 0.61781233 5 1 C4.7834375 1.7734375 4.7834375 1.7734375 4.5625 2.5625 C3.84190099 5.68509571 3.42733561 8.82550692 3 12 C1 11 1 11 -1 9 C-1.43221915 6.20460862 -1.23050372 3.85824617 -1 1 C-0.67 0.67 -0.34 0.34 0 0 Z " fill="#FDE9CE" transform="translate(410,547)"/>
<path d="M0 0 C1.69046268 4.05303703 0.11878515 7.27135213 -1.375 11.125 C-1.60960937 11.75792969 -1.84421875 12.39085937 -2.0859375 13.04296875 C-2.97130151 15.41232356 -3.86814672 17.73629343 -5 20 C-5.66 20 -6.32 20 -7 20 C-6.41161801 15.15888235 -4.92346884 11.03928805 -2.9375 6.625 C-2.65583984 5.98433594 -2.37417969 5.34367187 -2.08398438 4.68359375 C-1.39540579 3.11970341 -0.69855289 1.55946059 0 0 Z " fill="#FEEFD4" transform="translate(525,443)"/>
<path d="M0 0 C0.66 0 1.32 0 2 0 C-0.33937611 7.66795502 -3.54768806 14.77137274 -7 22 C-7.33 22 -7.66 22 -8 22 C-7.48053489 16.37368074 -5.93544322 12.10290424 -3.4375 7.0625 C-3.10814453 6.37865234 -2.77878906 5.69480469 -2.43945312 4.99023438 C-1.63482961 3.32268129 -0.8186103 1.66073161 0 0 Z " fill="#FEF1D7" transform="translate(233,406)"/>
<path d="M0 0 C0.66 0.66 1.32 1.32 2 2 C2.66 1.67 3.32 1.34 4 1 C6.6723621 0.86584528 9.32250488 0.95681459 12 1 C12.66 2.65 13.32 4.3 14 6 C13.34 6 12.68 6 12 6 C11.34 5.01 10.68 4.02 10 3 C7.56282742 3.27034634 7.56282742 3.27034634 5 4 C4.01 5.485 4.01 5.485 3 7 C1.68 6.67 0.36 6.34 -1 6 C-0.67 4.02 -0.34 2.04 0 0 Z " fill="#F1CCBE" transform="translate(256,560)"/>
<path d="M0 0 C2.66726716 2.66726716 3.40327218 5.33509408 4.6875 8.875 C5.14511719 10.10992187 5.60273438 11.34484375 6.07421875 12.6171875 C6.93330009 15.75627797 7.21775181 17.06263502 6 20 C2.53373983 13.37035677 -0.36540529 7.67351104 0 0 Z " fill="#FFF0D9" transform="translate(492,464)"/>
<path d="M0 0 C0.99 0 1.98 0 3 0 C4.20166506 4.92682675 3.76869813 8.25244185 2 13 C1.01 13.495 1.01 13.495 0 14 C0 9.38 0 4.76 0 0 Z " fill="#F9E4CD" transform="translate(605,547)"/>
<path d="M0 0 C1.54928135 2.32392203 2.63607817 4.26869948 3.7265625 6.79296875 C4.0359375 7.50517578 4.3453125 8.21738281 4.6640625 8.95117188 C5.13972656 10.0581543 5.13972656 10.0581543 5.625 11.1875 C5.94984375 11.93708984 6.2746875 12.68667969 6.609375 13.45898438 C7.40886262 15.3048602 8.20477953 17.15228184 9 19 C8.34 19.66 7.68 20.32 7 21 C3.8936214 14.43117569 1.16163513 7.93998648 -1 1 C-0.67 0.67 -0.34 0.34 0 0 Z " fill="#FEEED5" transform="translate(249,432)"/>
<path d="M0 0 C0.99 0 1.98 0 3 0 C3.08107583 1.93681161 3.13922475 3.8745934 3.1875 5.8125 C3.23970703 7.43091797 3.23970703 7.43091797 3.29296875 9.08203125 C3 12 3 12 0 15 C0 10.05 0 5.1 0 0 Z " fill="#FBE5CF" transform="translate(555,547)"/>
<path d="M0 0 C2.90773646 3.4037621 4.26016645 6.92717487 5.75 11.125 C6.19859375 12.36507813 6.6471875 13.60515625 7.109375 14.8828125 C8 18 8 18 7 20 C5.84917315 17.75243216 4.70423142 15.50218252 3.5625 13.25 C3.23701172 12.61578125 2.91152344 11.9815625 2.57617188 11.328125 C-0.61231516 5.01689293 -0.61231516 5.01689293 -1 2 C-0.67 1.34 -0.34 0.68 0 0 Z " fill="#FEF1DA" transform="translate(543,466)"/>
<path d="M0 0 C0.33 4.62 0.66 9.24 1 14 C0.01 14 -0.98 14 -2 14 C-3.32229189 11.35541621 -3.09677194 9.32238699 -3.0625 6.375 C-3.05347656 5.37210938 -3.04445313 4.36921875 -3.03515625 3.3359375 C-3.02355469 2.56507813 -3.01195312 1.79421875 -3 1 C-1 0 -1 0 0 0 Z " fill="#FDF2E0" transform="translate(587,552)"/>
<path d="M0 0 C0.33 0 0.66 0 1 0 C0.48914188 6.43681228 -0.72942897 11.95942424 -3 18 C-3.66 18 -4.32 18 -5 18 C-5.33 18.66 -5.66 19.32 -6 20 C-4.63125844 13.04223041 -2.5466871 6.61396893 0 0 Z " fill="#FEEFD9" transform="translate(567,464)"/>
<path d="M0 0 C0.66 0 1.32 0 2 0 C2.05383848 2.45862401 2.09359038 4.9160755 2.125 7.375 C2.14175781 8.07367187 2.15851562 8.77234375 2.17578125 9.4921875 C2.19344267 11.32897486 2.10303261 13.16601963 2 15 C1.34 15.66 0.68 16.32 0 17 C-0.99 16.67 -1.98 16.34 -3 16 C-2.34 15.01 -1.68 14.02 -1 13 C-0.5396236 9.80193335 -0.5396236 9.80193335 -0.375 6.3125 C-0.30023437 5.13300781 -0.22546875 3.95351563 -0.1484375 2.73828125 C-0.09945312 1.83464844 -0.05046875 0.93101562 0 0 Z " fill="#FCE3CE" transform="translate(567,548)"/>
<path d="M0 0 C0.66 0 1.32 0 2 0 C3.98 5.28 5.96 10.56 8 16 C7.34 16.66 6.68 17.32 6 18 C4.9936345 15.56495491 3.99473587 13.12729136 3 10.6875 C2.71382812 9.99720703 2.42765625 9.30691406 2.1328125 8.59570312 C0.91089256 5.58454326 0 3.28113016 0 0 Z " fill="#FEEDD8" transform="translate(542,436)"/>
<path d="M0 0 C0.66 0.33 1.32 0.66 2 1 C1.484375 1.515625 0.96875 2.03125 0.4375 2.5625 C-1.61584899 6.04426568 -0.97665028 8.1631596 0 12 C0.91666667 14.08333333 0.91666667 14.08333333 3 15 C5.71857423 15.23639776 8.25987669 15.13476016 11 15 C9 17 9 17 5.6875 17.4375 C2 17 2 17 -0.9375 15 C-3.77903011 10.86686529 -3.62869315 8.95095859 -3 4 C-1.5 1.5 -1.5 1.5 0 0 Z " fill="#D2BEAD" transform="translate(305,207)"/>
<path d="M0 0 C2.836543 3.37683691 4.54128372 6.84265861 6 11 C5.6875 13.9375 5.6875 13.9375 5 16 C3.68 15.67 2.36 15.34 1 15 C0.67 13.68 0.34 12.36 0 11 C1.32 11.33 2.64 11.66 4 12 C3.71125 11.38511719 3.4225 10.77023437 3.125 10.13671875 C2.75375 9.32847656 2.3825 8.52023437 2 7.6875 C1.62875 6.88699219 1.2575 6.08648438 0.875 5.26171875 C0 3 0 3 0 0 Z " fill="#F4DCC4" transform="translate(319,551)"/>
<path d="M0 0 C1.3809273 3.72673328 0.59902051 6.02657117 -0.75 9.6875 C-1.09546875 10.66074219 -1.4409375 11.63398438 -1.796875 12.63671875 C-3 15 -3 15 -6 16 C-8.1875 15.0625 -8.1875 15.0625 -10 14 C-9.40703125 13.97035156 -8.8140625 13.94070313 -8.203125 13.91015625 C-4.71441424 12.46889808 -4.19229431 9.81377987 -2.75 6.4375 C-2.22921875 5.23996094 -1.7084375 4.04242188 -1.171875 2.80859375 C-0.59179688 1.41833984 -0.59179688 1.41833984 0 0 Z " fill="#FEEFD8" transform="translate(410,483)"/>
<path d="M0 0 C2.97 0 5.94 0 9 0 C8.67 1.32 8.34 2.64 8 4 C5.36 4 2.72 4 0 4 C0 2.66666667 0 1.33333333 0 0 Z " fill="#FDE6CF" transform="translate(443,555)"/>
<path d="M0 0 C0.99 0.495 0.99 0.495 2 1 C3.53668865 1.22467831 5.07968054 1.40796805 6.625 1.5625 C7.44226563 1.64628906 8.25953125 1.73007812 9.1015625 1.81640625 C9.72804688 1.87699219 10.35453125 1.93757812 11 2 C11 2.33 11 2.66 11 3 C9.865625 3.12375 8.73125 3.2475 7.5625 3.375 C5.7990625 3.684375 5.7990625 3.684375 4 4 C2.5216774 6.95664519 2.93967217 9.74229737 3 13 C0.75393573 11.22555028 0.04918998 10.41647515 -0.29296875 7.51953125 C-0.25816406 6.62621094 -0.22335937 5.73289062 -0.1875 4.8125 C-0.16042969 3.91144531 -0.13335937 3.01039063 -0.10546875 2.08203125 C-0.07066406 1.39496094 -0.03585937 0.70789063 0 0 Z " fill="#F3DCC8" transform="translate(440,552)"/>
<path d="M0 0 C3.37240647 2.97565276 4.83332396 5.49997189 6.25 9.75 C6.58515625 10.73484375 6.9203125 11.7196875 7.265625 12.734375 C7.62914062 13.85585938 7.62914062 13.85585938 8 15 C7.01 15.495 7.01 15.495 6 16 C4.99303432 13.89915791 3.9946411 11.79420511 3 9.6875 C2.443125 8.51574219 1.88625 7.34398437 1.3125 6.13671875 C0 3 0 3 0 0 Z " fill="#FEEFD5" transform="translate(259,458)"/>
<path d="M0 0 C-1 3 -1 3 -2.890625 4.203125 C-9.31926936 7.05556985 -9.31926936 7.05556985 -13.0625 6.75 C-13.701875 6.5025 -14.34125 6.255 -15 6 C-12.29954818 4.19969878 -9.93322119 3.06622934 -6.9375 1.875 C-6.05964844 1.52179688 -5.18179688 1.16859375 -4.27734375 0.8046875 C-2 0 -2 0 0 0 Z " fill="#FEF1D7" transform="translate(666,492)"/>
<path d="M0 0 C0.66 0 1.32 0 2 0 C3.05837122 2.0958142 4.09626587 4.20198042 5.125 6.3125 C5.70507812 7.48425781 6.28515625 8.65601563 6.8828125 9.86328125 C7.25148438 10.89839844 7.62015625 11.93351562 8 13 C7.01 14.485 7.01 14.485 6 16 C4.9955866 13.7101766 3.99632388 11.4183401 3 9.125 C2.71382813 8.47402344 2.42765625 7.82304687 2.1328125 7.15234375 C0 2.2265625 0 2.2265625 0 0 Z " fill="#FEF0D8" transform="translate(268,479)"/>
<path d="M0 0 C0.66 0 1.32 0 2 0 C0.36041242 5.23272633 -1.38952035 10.15196636 -4 15 C-4.66 14.34 -5.32 13.68 -6 13 C-4.02 8.71 -2.04 4.42 0 0 Z " fill="#FFF2DC" transform="translate(214,450)"/>
<path d="M0 0 C0.66 0 1.32 0 2 0 C0.36041242 5.23272633 -1.38952035 10.15196636 -4 15 C-5.3480932 11.339671 -4.6336844 9.33449773 -3.125 5.8125 C-2.75632813 4.93207031 -2.38765625 4.05164063 -2.0078125 3.14453125 C-1 1 -1 1 0 0 Z " fill="#FEF1D5" transform="translate(221,434)"/>
<path d="M0 0 C3.3 0 6.6 0 10 0 C10.33 0.66 10.66 1.32 11 2 C8.36 2 5.72 2 3 2 C2.67 2.66 2.34 3.32 2 4 C4.97 4 7.94 4 11 4 C10.67 4.66 10.34 5.32 10 6 C6.7 5.67 3.4 5.34 0 5 C0 3.35 0 1.7 0 0 Z " fill="#E6CDBD" transform="translate(211,550)"/>
<path d="M0 0 C0.66 0 1.32 0 2 0 C1.54803755 1.60597325 1.08817673 3.20972508 0.625 4.8125 C0.36976563 5.70582031 0.11453125 6.59914063 -0.1484375 7.51953125 C-1 10 -1 10 -3 13 C-4.00821159 10.31143576 -4.22736824 8.58296785 -3.17578125 5.88671875 C-2.16604698 3.89205069 -1.11893353 1.9353228 0 0 Z " fill="#FDEED5" transform="translate(572,451)"/>
<path d="M0 0 C0.66 0 1.32 0 2 0 C1.77169299 1.62818946 1.51656424 3.2526349 1.25 4.875 C1.11078125 5.77992188 0.9715625 6.68484375 0.828125 7.6171875 C0 10 0 10 -2.078125 11.3203125 C-2.71234375 11.54460937 -3.3465625 11.76890625 -4 12 C-3.53680089 7.27536912 -2.90108294 3.82942948 0 0 Z " fill="#FEEED6" transform="translate(198,487)"/>
<path d="M0 0 C0.66 0 1.32 0 2 0 C2.19658808 1.41543415 2.38187546 2.83244031 2.5625 4.25 C2.66691406 5.03890625 2.77132812 5.8278125 2.87890625 6.640625 C3.00027349 9.00532874 2.69633257 10.7511037 2 13 C1.34 13 0.68 13 0 13 C0 8.71 0 4.42 0 0 Z " fill="#FCF3DD" transform="translate(688,445)"/>
<path d="M0 0 C0.99 0.33 1.98 0.66 3 1 C3 1.99 3 2.98 3 4 C3.99 4.33 4.98 4.66 6 5 C6 5.66 6 6.32 6 7 C5.01 7.33 4.02 7.66 3 8 C0 6 0 6 -0.75 4 C-1 2 -1 2 0 0 Z " fill="#FCE7D3" transform="translate(372,559)"/>
<path d="M0 0 C0.33 0.66 0.66 1.32 1 2 C0.00390625 4.6015625 0.00390625 4.6015625 -1.4375 7.625 C-1.91058594 8.62789063 -2.38367188 9.63078125 -2.87109375 10.6640625 C-3.24363281 11.43492187 -3.61617187 12.20578125 -4 13 C-4.99 12.67 -5.98 12.34 -7 12 C-6.02296079 10.1863523 -5.04330895 8.37411183 -4.0625 6.5625 C-3.51722656 5.55316406 -2.97195312 4.54382813 -2.41015625 3.50390625 C-1 1 -1 1 0 0 Z " fill="#FEF4DA" transform="translate(208,466)"/>
<path d="M0 0 C0.99 0 1.98 0 3 0 C2.34 5.61 1.68 11.22 1 17 C0.67 17 0.34 17 0 17 C0 11.39 0 5.78 0 0 Z " fill="#FEEAD3" transform="translate(289,404)"/>
<path d="M0 0 C0 2.31 0 4.62 0 7 C-1.9375 7.5625 -1.9375 7.5625 -4 8 C-5 7 -5 7 -5.0625 3.9375 C-5.041875 2.968125 -5.02125 1.99875 -5 1 C-1.125 0 -1.125 0 0 0 Z " fill="#E6D0BE" transform="translate(238,559)"/>
<path d="M0 0 C0.99 0.33 1.98 0.66 3 1 C2.67 2.32 2.34 3.64 2 5 C3.98 5 5.96 5 8 5 C8 4.01 8 3.02 8 2 C7.34 1.67 6.68 1.34 6 1 C6.99 1 7.98 1 9 1 C9.5625 2.9375 9.5625 2.9375 10 5 C9 6 9 6 6.93359375 6.09765625 C6.10988281 6.08605469 5.28617188 6.07445312 4.4375 6.0625 C3.61121094 6.05347656 2.78492188 6.04445313 1.93359375 6.03515625 C1.29550781 6.02355469 0.65742187 6.01195312 0 6 C0 4.02 0 2.04 0 0 Z " fill="#E3CEBD" transform="translate(634,550)"/>
<path d="M0 0 C0.66 0 1.32 0 2 0 C2.53229326 1.26607607 3.05044544 2.53810412 3.5625 3.8125 C3.85253906 4.52019531 4.14257812 5.22789062 4.44140625 5.95703125 C5 8 5 8 4 11 C1.6870518 8.6870518 1.50419025 7.52095125 0.875 4.375 C0.70742188 3.55773437 0.53984375 2.74046875 0.3671875 1.8984375 C0.24601562 1.27195312 0.12484375 0.64546875 0 0 Z " fill="#FEF1DD" transform="translate(487,415)"/>
<path d="M0 0 C1.65 0 3.3 0 5 0 C4.67 1.65 4.34 3.3 4 5 C2.68 4.67 1.36 4.34 0 4 C0 2.68 0 1.36 0 0 Z " fill="#989FA7" transform="translate(325,221)"/>
<path d="M0 0 C0.66 0 1.32 0 2 0 C2.79953138 3.28696233 3.09658936 4.71023192 2 8 C1.01 8 0.02 8 -1 8 C-0.67 5.36 -0.34 2.72 0 0 Z " fill="#FBE5CC" transform="translate(308,559)"/>
<path d="M0 0 C2.64 0 5.28 0 8 0 C8 0.99 8 1.98 8 3 C5.36 3 2.72 3 0 3 C0 2.01 0 1.02 0 0 Z " fill="#FEE9D2" transform="translate(535,556)"/>
<path d="M0 0 C2.47859908 2.2008849 3.61210366 4.06372969 4.6875 7.1875 C4.93886719 7.90292969 5.19023438 8.61835938 5.44921875 9.35546875 C5.63097656 9.89816406 5.81273437 10.44085938 6 11 C5.34 11.66 4.68 12.32 4 13 C3.32942113 11.2097939 2.6636531 9.41778511 2 7.625 C1.62875 6.62726563 1.2575 5.62953125 0.875 4.6015625 C0 2 0 2 0 0 Z " fill="#FFF2D7" transform="translate(549,455)"/>
<path d="M0 0 C0.99 0.33 1.98 0.66 3 1 C3.80078125 2.77734375 3.80078125 2.77734375 4.3125 4.9375 C4.49425781 5.64777344 4.67601562 6.35804688 4.86328125 7.08984375 C4.93095703 8.03537109 4.93095703 8.03537109 5 9 C4.34 9.66 3.68 10.32 3 11 C2.49384702 9.73160474 1.99530901 8.46016898 1.5 7.1875 C1.2215625 6.47980469 0.943125 5.77210938 0.65625 5.04296875 C0 3 0 3 0 0 Z " fill="#FEEFD5" transform="translate(493,434)"/>
<path d="M0 0 C2.6465335 2.6465335 3.59941997 5.56221264 5 9 C3.125 8.875 3.125 8.875 1 8 C-0.3125 5.0625 -0.3125 5.0625 -1 2 C-0.67 1.34 -0.34 0.68 0 0 Z " fill="#FEF2D9" transform="translate(501,491)"/>
<path d="M0 0 C0.66 0.99 1.32 1.98 2 3 C1.5390625 5.04296875 1.5390625 5.04296875 0.625 7.1875 C0.32851563 7.90292969 0.03203125 8.61835938 -0.2734375 9.35546875 C-0.51320313 9.89816406 -0.75296875 10.44085938 -1 11 C-1.66 10.67 -2.32 10.34 -3 10 C-2.39009109 6.44219804 -1.4216319 3.3171411 0 0 Z " fill="#FDEBD6" transform="translate(514,471)"/>
<path d="M0 0 C0.66 0.33 1.32 0.66 2 1 C2.625 3.0625 2.625 3.0625 3 5 C1.02 5.99 1.02 5.99 -1 7 C-1.625 5.1875 -1.625 5.1875 -2 3 C-1.34 2.01 -0.68 1.02 0 0 Z " fill="#F8E7C3" transform="translate(271,560)"/>
<path d="M0 0 C2 1 2 1 3.125 4.0625 C3.41375 5.031875 3.7025 6.00125 4 7 C2.02 7 0.04 7 -2 7 C-1.34 4.69 -0.68 2.38 0 0 Z " fill="#DDC8BB" transform="translate(263,552)"/>
<path d="M0 0 C2.64465038 3.1254959 3.84414715 6.08788267 5 10 C4.34 10 3.68 10 3 10 C3 9.01 3 8.02 3 7 C2.01 6.67 1.02 6.34 0 6 C-0.38218767 4.34385343 -0.71395102 2.67542976 -1 1 C-0.67 0.67 -0.34 0.34 0 0 Z " fill="#FFF1DA" transform="translate(551,487)"/>
<path d="M0 0 C3.80984844 2.77079887 4.06840752 6.62868145 5 11 C0.05973451 6.28429204 0.05973451 6.28429204 -0.125 2.3125 C-0.08375 1.549375 -0.0425 0.78625 0 0 Z " fill="#FFF3DB" transform="translate(245,452)"/>
<path d="M0 0 C1.485 0.99 1.485 0.99 3 2 C3.1875 4.625 3.1875 4.625 3 7 C1.68 6.67 0.36 6.34 -1 6 C-0.67 4.02 -0.34 2.04 0 0 Z " fill="#F3DCC3" transform="translate(256,560)"/>
<path d="M0 0 C2.31 0 4.62 0 7 0 C6.67 0.99 6.34 1.98 6 3 C4.35 3.33 2.7 3.66 1 4 C0.67 2.68 0.34 1.36 0 0 Z " fill="#FEEED5" transform="translate(185,556)"/>
<path d="M0 0 C-0.33 0.99 -0.66 1.98 -1 3 C-3.64 3 -6.28 3 -9 3 C-9.33 2.34 -9.66 1.68 -10 1 C-2.25 0 -2.25 0 0 0 Z " fill="#FDE7D1" transform="translate(222,556)"/>
<path d="M0 0 C0.66 0 1.32 0 2 0 C2.99 2.97 3.98 5.94 5 9 C4.34 9.66 3.68 10.32 3 11 C2.01 7.37 1.02 3.74 0 0 Z " fill="#FFF0D6" transform="translate(500,456)"/>
<path d="M0 0 C0.99 0.33 1.98 0.66 3 1 C3.33 2.98 3.66 4.96 4 7 C2.66666667 7 1.33333333 7 0 7 C0 4.69 0 2.38 0 0 Z " fill="#F5DECA" transform="translate(399,549)"/>
<path d="M0 0 C0.66 0.66 1.32 1.32 2 2 C-0.17424117 4.50037734 -1.73045798 5.43628586 -5 6 C-3.63016497 2.83884224 -3.0109362 2.0072908 0 0 Z " fill="#FEECD2" transform="translate(673,486)"/>
<path d="M0 0 C2.35953094 2.35953094 2.49141413 3.77895617 3 7 C2.01 7.495 2.01 7.495 1 8 C-0.42944945 5.64561267 -1.08661261 4.51967567 -0.625 1.75 C-0.41875 1.1725 -0.2125 0.595 0 0 Z " fill="#FFF3DC" transform="translate(536,417)"/>
</svg>
